<svg xmlns="http://www.w3.org/2000/svg" width="19.548" height="19.548" viewBox="0 0 19.548 19.548">
  <g id="COCO_Duotone_Call_-_Calling" data-name="COCO/Duotone/Call - Calling" transform="translate(-2.249 -2.203)">
    <path id="Vector" d="M0,.252A6.284,6.284,0,0,1,6.2,1.8,6.284,6.284,0,0,1,7.748,8M1.937,2.964a2.62,2.62,0,0,1,2.324.775,2.62,2.62,0,0,1,.775,2.324" transform="translate(13 3)" fill="rgba(76,134,19,0.15)" stroke="#4c8613" stroke-linecap="round" stroke-linejoin="round" stroke-width="1.5"/>
    <path id="Vector-2" data-name="Vector" d="M11.541,12A2.431,2.431,0,0,0,9,14.3a2.86,2.86,0,0,0,.131.853l.083.267a3.705,3.705,0,0,0,2.951,2.46,7.7,7.7,0,0,0,2.669,0,3.705,3.705,0,0,0,2.951-2.46l.083-.267A2.86,2.86,0,0,0,18,14.3,2.431,2.431,0,0,0,15.459,12Z" transform="translate(3 3)" fill="rgba(76,134,19,0.15)" stroke="#4c8613" stroke-width="1.5"/>
    <path id="Vector-3" data-name="Vector" d="M6,2.541A2.431,2.431,0,0,0,3.7,0a2.86,2.86,0,0,0-.853.131L2.576.214A3.705,3.705,0,0,0,.117,3.165a7.7,7.7,0,0,0,0,2.669,3.705,3.705,0,0,0,2.46,2.951l.267.083A2.86,2.86,0,0,0,3.7,9,2.431,2.431,0,0,0,6,6.459Z" transform="translate(3 3)" fill="rgba(76,134,19,0.15)" stroke="#4c8613" stroke-width="1.5"/>
    <path id="Vector-4" data-name="Vector" d="M12.165,17.883A15.041,15.041,0,0,1,.117,5.835" transform="translate(3 3)" fill="rgba(76,134,19,0.15)" stroke="#4c8613" stroke-width="1.5"/>
  </g>
</svg>
