<svg xmlns="http://www.w3.org/2000/svg" width="19.51" height="19.51" viewBox="0 0 19.51 19.51">
  <g id="COCO_Duotone_Edit_-_3" data-name="COCO/Duotone/Edit - 3" transform="translate(-2.245 -2.245)">
    <path id="Vector" d="M.353,5.95a7.511,7.511,0,0,1,5.6-5.6,13.354,13.354,0,0,1,6.1,0,7.511,7.511,0,0,1,5.6,5.6,13.354,13.354,0,0,1,0,6.1,7.511,7.511,0,0,1-5.6,5.6,13.354,13.354,0,0,1-6.1,0,7.511,7.511,0,0,1-5.6-5.6A13.354,13.354,0,0,1,.353,5.95Z" transform="translate(3 3)" fill="rgba(76,134,19,0.15)" stroke="#4c8613" stroke-width="1.5"/>
    <path id="Icon_material-language" data-name="Icon material-language" d="M7,3a4,4,0,1,0,4,4A4,4,0,0,0,7,3ZM9.768,5.4H8.588a6.26,6.26,0,0,0-.552-1.424A3.212,3.212,0,0,1,9.768,5.4ZM7,3.816A5.635,5.635,0,0,1,7.764,5.4H6.236A5.635,5.635,0,0,1,7,3.816ZM3.9,7.8a3.129,3.129,0,0,1,0-1.6H5.256A6.606,6.606,0,0,0,5.2,7a6.606,6.606,0,0,0,.056.8Zm.328.8h1.18a6.26,6.26,0,0,0,.552,1.424A3.2,3.2,0,0,1,4.232,8.6Zm1.18-3.2H4.232A3.2,3.2,0,0,1,5.964,3.976,6.26,6.26,0,0,0,5.412,5.4ZM7,10.184A5.635,5.635,0,0,1,6.236,8.6H7.764A5.635,5.635,0,0,1,7,10.184ZM7.936,7.8H6.064A5.885,5.885,0,0,1,6,7a5.834,5.834,0,0,1,.064-.8H7.936A5.834,5.834,0,0,1,8,7,5.885,5.885,0,0,1,7.936,7.8Zm.1,2.224A6.26,6.26,0,0,0,8.588,8.6h1.18a3.212,3.212,0,0,1-1.732,1.424ZM8.744,7.8A6.606,6.606,0,0,0,8.8,7a6.606,6.606,0,0,0-.056-.8H10.1a3.129,3.129,0,0,1,0,1.6Z" transform="translate(5 5)" fill="#4c8613"/>
  </g>
</svg>
