<svg xmlns="http://www.w3.org/2000/svg" width="20.512" height="19.509" viewBox="0 0 20.512 19.509">
  <g id="Group_17651" data-name="Group 17651" transform="translate(-271.744 -232.246)">
    <g id="COCO_Duotone_Dollar" data-name="COCO/Duotone/Dollar" transform="translate(270 230)">
      <path id="Vector" d="M.385,5.849A7.353,7.353,0,0,1,5.931.442l.454-.1a14.4,14.4,0,0,1,6.231,0l.454.1a7.353,7.353,0,0,1,5.545,5.407,13.076,13.076,0,0,1,0,6.3,7.353,7.353,0,0,1-5.545,5.407l-.454.1a14.4,14.4,0,0,1-6.231,0l-.454-.1A7.353,7.353,0,0,1,.385,12.151,13.076,13.076,0,0,1,.385,5.849Z" transform="translate(2.5 3)" fill="rgba(76,134,19,0.15)" stroke="#4c8613" stroke-width="1.5"/>
      <path id="Vector-2" data-name="Vector" d="M3,0a.673.673,0,0,1,.692.652v.534h.077A2.231,2.231,0,0,1,6,3.419a.694.694,0,0,1-1.385,0,.891.891,0,0,0-.846-.929H3.693V4.543l.935.32a2.03,2.03,0,0,1-.661,3.951H3.693v.534A.673.673,0,0,1,3,10a.673.673,0,0,1-.692-.652V8.814H2.231A2.231,2.231,0,0,1,0,6.581a.673.673,0,0,1,.692-.652.673.673,0,0,1,.692.652.891.891,0,0,0,.846.929h.077V5.457l-.935-.32a2.03,2.03,0,0,1,.661-3.951h.275V.652A.673.673,0,0,1,3,0ZM2.308,2.49H2.033a.691.691,0,0,0-.649.726.723.723,0,0,0,.461.695l.462.158ZM3.693,5.931V7.51h.274a.691.691,0,0,0,.649-.726.723.723,0,0,0-.461-.695Z" transform="translate(9 7)" fill="#4c8613"/>
    </g>
  </g>
</svg>
