<svg xmlns="http://www.w3.org/2000/svg" width="19.51" height="19.51" viewBox="0 0 19.51 19.51">
  <g id="COCO_Duotone_Question" data-name="COCO/Duotone/Question" transform="translate(-2.245 -2.245)">
    <path id="Vector" d="M5.95,17.647a7.511,7.511,0,0,1-5.6-5.6,13.354,13.354,0,0,1,0-6.1,7.511,7.511,0,0,1,5.6-5.6,13.354,13.354,0,0,1,6.1,0,7.511,7.511,0,0,1,5.6,5.6,13.354,13.354,0,0,1,0,6.1,7.511,7.511,0,0,1-5.6,5.6A13.354,13.354,0,0,1,5.95,17.647Z" transform="translate(3 3)" fill="rgba(76,134,19,0.15)" stroke="#4c8613" stroke-width="1.5"/>
    <circle id="Vector-2" data-name="Vector" cx="1" cy="1" r="1" transform="translate(11 14.5)" fill="#4c8613"/>
    <path id="Vector-3" data-name="Vector" d="M0,2.5V0H4V3L2,5" transform="translate(10 7.5)" fill="rgba(54,56,83,0.15)" stroke="#4c8613" stroke-linecap="round" stroke-linejoin="round" stroke-width="1.5"/>
  </g>
</svg>
