<svg xmlns="http://www.w3.org/2000/svg" width="17.5" height="19.599" viewBox="0 0 17.5 19.599">
  <g id="COCO_Duotone_Shield_-_check" data-name="COCO/Duotone/Shield - check" transform="translate(-3.25 -2.184)">
    <path id="Vector" d="M11.875,16.487l.181-.125c.565-.391.848-.586,1.1-.8a7.5,7.5,0,0,0,2.6-4.476c.056-.322.086-.663.145-1.346l.03-.353A17.993,17.993,0,0,0,15.9,6l-.036-.349a5.751,5.751,0,0,0-3.2-4.575,10.642,10.642,0,0,0-9.329,0,5.751,5.751,0,0,0-3.2,4.575L.1,6A17.993,17.993,0,0,0,.066,9.392l.03.353c.059.682.088,1.023.145,1.346a7.5,7.5,0,0,0,2.6,4.476c.253.209.535.4,1.1.8l.181.125a12.349,12.349,0,0,0,1.537.981,5.411,5.411,0,0,0,4.676,0A12.349,12.349,0,0,0,11.875,16.487Z" transform="translate(4 3)" fill="rgba(76,134,19,0.15)" stroke="#4c8613" stroke-width="1.5"/>
    <path id="Vector-2" data-name="Vector" d="M0,1.75l2,2L5.5,0" transform="translate(9.25 10)" fill="rgba(76,134,19,0.15)" stroke="#4c8613" stroke-linecap="round" stroke-linejoin="round" stroke-width="1.5"/>
  </g>
</svg>
