<svg xmlns="http://www.w3.org/2000/svg" width="19.558" height="19.548" viewBox="0 0 19.558 19.548">
  <g id="COCO_Line_Star" data-name="COCO/Line/Star" transform="translate(0.779 0.75)">
    <path id="Vector" d="M6.654,1.586a2.528,2.528,0,0,1,4.692,0l.612,1.473A2.555,2.555,0,0,0,14.023,4.63l1.707.193A2.615,2.615,0,0,1,17.2,9.3l-1.449,1.4a2.637,2.637,0,0,0-.745,2.4l.35,1.771A2.558,2.558,0,0,1,11.5,17.593l-1.145-.736a2.5,2.5,0,0,0-2.714,0L6.5,17.593a2.558,2.558,0,0,1-3.855-2.717l.35-1.771a2.637,2.637,0,0,0-.745-2.4L.8,9.3A2.615,2.615,0,0,1,2.27,4.824L3.977,4.63A2.555,2.555,0,0,0,6.042,3.06Z" transform="translate(0 0)" fill="rgba(76,134,19,0.15)" stroke="#4c8613" stroke-linecap="round" stroke-linejoin="round" stroke-width="1.5"/>
  </g>
</svg>
