<svg xmlns="http://www.w3.org/2000/svg" width="19.51" height="19.155" viewBox="0 0 19.51 19.155">
  <g id="COCO_Duotone_Note" data-name="COCO/Duotone/Note" transform="translate(-2.245 -2.245)">
    <path id="Vector" d="M.353,5.833A7.439,7.439,0,0,1,5.95.346a13.616,13.616,0,0,1,6.1,0,7.439,7.439,0,0,1,5.6,5.487,12.839,12.839,0,0,1,0,5.979,7.439,7.439,0,0,1-5.6,5.487,13.616,13.616,0,0,1-6.1,0,7.439,7.439,0,0,1-5.6-5.487A12.839,12.839,0,0,1,.353,5.833Z" transform="translate(3 3)" fill="rgba(76,134,19,0.15)" stroke="#4c8613" stroke-width="1.5"/>
    <path id="Vector-2" data-name="Vector" d="M11.081,18c0-2.884,0-4.326.914-5.222s2.385-.9,5.328-.9" transform="translate(3 3)" fill="rgba(76,134,19,0.15)" stroke="#4c8613" stroke-width="1.5"/>
    <path id="Vector-3" data-name="Vector" d="M0,0H3M0,3H5" transform="translate(9 9)" fill="rgba(76,134,19,0.15)" stroke="#4c8613" stroke-linecap="round" stroke-width="1.5"/>
  </g>
</svg>
