<svg xmlns="http://www.w3.org/2000/svg" width="15.5" height="19.5" viewBox="0 0 15.5 19.5">
  <g id="COCO_Duotone_User" data-name="COCO/Duotone/User" transform="translate(-4.25 -2.25)">
    <path id="Vector" d="M0,16.111a4.865,4.865,0,0,1,4-4.849l.208-.034a17.133,17.133,0,0,1,5.576,0l.208.034a4.865,4.865,0,0,1,4,4.849A1.859,1.859,0,0,1,12.172,18H1.828A1.859,1.859,0,0,1,0,16.111Z" transform="translate(5 3)" fill="rgba(76,134,19,0.15)" stroke="#4c8613" stroke-width="1.5"/>
    <path id="Vector-2" data-name="Vector" d="M11.083,3.938A4.012,4.012,0,0,1,7,7.875,4.012,4.012,0,0,1,2.917,3.938,4.012,4.012,0,0,1,7,0,4.012,4.012,0,0,1,11.083,3.938Z" transform="translate(5 3)" fill="rgba(76,134,19,0.15)" stroke="#4c8613" stroke-width="1.5"/>
  </g>
</svg>
