<svg xmlns="http://www.w3.org/2000/svg" width="19.544" height="19.509" viewBox="0 0 19.544 19.509">
  <g id="COCO_Line_Wallet" data-name="COCO/Line/Wallet" transform="translate(0.756 0.754)">
    <path id="Vector" d="M0,0H4" transform="translate(4.822 6)" fill="rgba(76,134,19,0.15)" stroke="#4c8613" stroke-linecap="round" stroke-width="1.5"/>
    <path id="Vector-2" data-name="Vector" d="M.365,5.849A7.156,7.156,0,0,1,5.618.442l.43-.1a12.943,12.943,0,0,1,5.9,0l.43.1a7.156,7.156,0,0,1,5.253,5.407,13.782,13.782,0,0,1,0,6.3,7.156,7.156,0,0,1-5.253,5.407l-.43.1a12.943,12.943,0,0,1-5.9,0l-.43-.1A7.156,7.156,0,0,1,.365,12.151,13.782,13.782,0,0,1,.365,5.849Z" transform="translate(0)" fill="rgba(76,134,19,0.15)" stroke="#4c8613" stroke-linecap="round" stroke-width="1.5"/>
    <path id="Vector-3" data-name="Vector" d="M18.8,6.8a4.494,4.494,0,0,0-2.607-.3l-.059.011a2.629,2.629,0,0,0-2.057,1.865,2.287,2.287,0,0,0,0,1.256,2.629,2.629,0,0,0,2.057,1.865l.059.011a4.494,4.494,0,0,0,2.607-.3" transform="translate(-1)" fill="rgba(76,134,19,0.15)" stroke="#4c8613" stroke-linecap="round" stroke-width="1.5"/>
  </g>
</svg>
