<svg xmlns="http://www.w3.org/2000/svg" xmlns:xlink="http://www.w3.org/1999/xlink" width="114" height="114" viewBox="0 0 114 114">
  <defs>
    <clipPath id="clip-path">
      <circle id="Ellipse_444" data-name="Ellipse 444" cx="46.5" cy="46.5" r="46.5" transform="translate(327 65)" fill="#f5f6fa"/>
    </clipPath>
    <linearGradient id="linear-gradient" x1="0.195" y1="0.729" x2="0.949" y2="-0.037" gradientUnits="objectBoundingBox">
      <stop offset="0" stop-color="#150047"/>
      <stop offset="1" stop-color="#6878b1"/>
    </linearGradient>
    <linearGradient id="linear-gradient-2" x1="0" y1="0.5" x2="1" y2="0.5" xlink:href="#linear-gradient"/>
    <clipPath id="clip-path-2">
      <rect id="Rectangle_6712" data-name="Rectangle 6712" width="94" height="94" transform="translate(237 148)" fill="#fff" stroke="#707070" stroke-width="1"/>
    </clipPath>
  </defs>
  <g id="Group_19424" data-name="Group 19424" transform="translate(-4424 2679)">
    <circle id="Ellipse_443" data-name="Ellipse 443" cx="57" cy="57" r="57" transform="translate(4424 -2679)" fill="#f5f6fa"/>
    <g id="Mask_Group_72" data-name="Mask Group 72" transform="translate(4108 -2733)" opacity="0.1" clip-path="url(#clip-path)" style="mix-blend-mode: luminosity;isolation: isolate">
      <g id="avatar" transform="translate(330.756 75.184)">
        <path id="Path" d="M75.951,31.916A61.893,61.893,0,0,1,0,31.58l16.318-7.649a15.7,15.7,0,0,0,2.23-1.281c.215-.148.429-.3.634-.463a15.544,15.544,0,0,0,4.286-5.061,14.987,14.987,0,0,0,1.556-4.856,22.775,22.775,0,0,0,.248-3.323c0-1.918-.1-3.836-.124-5.758q-.02-1.6-.034-3.189l.671.335,1.744.9.808.137,9.35,1.59L48.123,4.742l.315,10.731.1,3.508.05,1.7V20.8l4.058,1.65Z" transform="translate(0 49.765)" fill="#f2d4cf"/>
        <path id="Path-2" data-name="Path" d="M23.475,20.8a5.366,5.366,0,0,1-3.377-.523L.087,3.91c-.023-.758-.044.037-.054-.721Q.013,1.6,0,0L.671.335l1.744.9.808.137,9.35,1.59L23.009,4.742l.315,10.731.1,3.508.05,1.7V20.8Z" transform="translate(25.105 49.346)" fill="#a76962"/>
        <path id="Path-3" data-name="Path" d="M51.9,15.774a30.343,30.343,0,0,1,12.9,14.38,26.869,26.869,0,0,0-6.536,1.362h-.02q-.825.282-1.637.62l-.335.144-.533.235h0c-.178.077-.355.161-.53.248s-.335.171-.527.262-.335.178-.52.272-.305.164-.456.252c-.362.2-.718.412-1.066.63q-.208.127-.412.262A26.386,26.386,0,0,0,48.46,37.4c-1.472,1.392-2.847,2.991-4.36,4.42a15.53,15.53,0,0,1-4.487,3.149c-3.233,1.392-6.972,2.2-10.329,3.354l-15.762,5.45A33.221,33.221,0,0,0,9.5,49.611,30.541,30.541,0,0,1,.008,28.148C-.536,3.58,28.325-3.643,47.963,1.622a30.588,30.588,0,0,1,8.79,3.937,25.487,25.487,0,0,1,4.876,4.1,21.168,21.168,0,0,1,4.007,6.2l-.265-.047A37.8,37.8,0,0,0,51.9,15.774Z" transform="translate(11.643 0)" fill="url(#linear-gradient)"/>
        <path id="Path-4" data-name="Path" d="M22.546,17.344a26.869,26.869,0,0,0-6.536,1.362h-.02a15.882,15.882,0,0,0-1.637.62l-.335.144-.54.241c-.178.08-.352.161-.53.248s-.335.171-.527.262-.335.178-.52.272-.305.164-.456.252c-.362.2-.718.412-1.066.63l-.412.262A26.386,26.386,0,0,0,6.194,24.6c-1.472,1.392-2.847,2.991-4.36,4.42-.49.2-.976.412-1.462.624.06-.027-.386-5.7-.372-6.274a37.057,37.057,0,0,1,.748-6.519c.852-4.128.309-7.968,1.13-12.2a26.976,26.976,0,0,1,.671-2.8A11.141,11.141,0,0,1,7.6.234a27.7,27.7,0,0,1,12.187,1.2,19.2,19.2,0,0,1,1.908.718c.3.131.584.272.869.423a4.1,4.1,0,0,0,.812.476,39.294,39.294,0,0,0-13.75-.091A30.343,30.343,0,0,1,22.546,17.344Z" transform="translate(53.901 12.81)" fill="url(#linear-gradient-2)"/>
        <circle id="Oval" cx="5.701" cy="5.701" r="5.701" transform="translate(16.114 34.671)" fill="#f2d4cf"/>
        <circle id="Oval-2" data-name="Oval" cx="5.104" cy="5.104" r="5.104" transform="translate(18.518 35.268)" fill="#a76962"/>
        <path id="Path-5" data-name="Path" d="M0,20.356,1.469,39.471,23.75,52.49a6.63,6.63,0,0,0,8.277-3.307c3.206-6.566,8.35-16.932,7.673-20.792-1.006-5.7-3.689-7.713-3.689-7.713q.56-3.354,1.113-6.687c.423-2.519.959-5.148.335-7.68C36.745,3.411,34.552,2.17,32.747,0,28,6.117,20.192,9.574,13.374,13.079,9.853,14.93,0,20.356,0,20.356Z" transform="translate(23.7 14.637)" fill="#f2d4cf"/>
        <path id="Path-6" data-name="Path" d="M0,.55A27.02,27.02,0,0,1,9.434.3" transform="translate(34.448 30.489)" fill="none" stroke="#00214e" stroke-miterlimit="10" stroke-width="0.2"/>
        <path id="Path-7" data-name="Path" d="M0,.479A18.659,18.659,0,0,1,5.852.073" transform="translate(54.25 30.597)" fill="none" stroke="#00214e" stroke-miterlimit="10" stroke-width="0.2"/>
        <path id="Path-8" data-name="Path" d="M.621,0a1.14,1.14,0,0,0,.708,2.14" transform="translate(45.906 43.981)" fill="none" stroke="#00214e" stroke-miterlimit="10" stroke-width="0.2"/>
        <path id="Path-9" data-name="Path" d="M.4,0A9.436,9.436,0,0,0,.942,2.783c.191.382.49.7.671,1.087C2.354,5.322,1.157,5.631,0,5.631" transform="translate(52.181 40.513)" fill="none" stroke="#00214e" stroke-miterlimit="10" stroke-width="0.2"/>
        <path id="Path-10" data-name="Path" d="M75.951,19.645A61.893,61.893,0,0,1,0,19.31L16.318,11.66a15.7,15.7,0,0,0,2.23-1.281c.215-.148.429-.3.634-.463a15.544,15.544,0,0,0,4.286-5.061A14.987,14.987,0,0,0,25.024,0a9.611,9.611,0,0,0,.744.651,31.906,31.906,0,0,0,6.647,3.776,33.2,33.2,0,0,0,3.508,1.237A31.362,31.362,0,0,0,46.99,6.835c.516-.04,1.036-.091,1.553-.127l.05,1.7v.111l4.058,1.65Z" transform="translate(0 62.036)" fill="#150047"/>
        <circle id="Oval-3" data-name="Oval" cx="6.372" cy="6.372" r="6.372" transform="translate(35.092 29.698)" fill="none" stroke="#00214e" stroke-miterlimit="10" stroke-width="0.2"/>
        <circle id="Oval-4" data-name="Oval" cx="6.372" cy="6.372" r="6.372" transform="translate(52.912 28.692)" fill="none" stroke="#00214e" stroke-miterlimit="10" stroke-width="0.2"/>
        <path id="Path-11" data-name="Path" d="M0,.436,5.077,0" transform="translate(47.835 35.634)" fill="none" stroke="#00214e" stroke-miterlimit="10" stroke-width="0.2"/>
        <path id="Path-12" data-name="Path" d="M.074.291a.627.627,0,0,1,.9-.168A9.529,9.529,0,0,0,4.759,2.011c2.468.493,4.608-.5,5.121.141.288.359-.064.8-.738,1.358A6.623,6.623,0,0,1,4.158,4.747C1.784,4.3,0,1.552,0,.576A.6.6,0,0,1,.074.291Z" transform="translate(40.913 49.689)" fill="#fff"/>
        <path id="Path-13" data-name="Path" d="M.074.291a.627.627,0,0,1,.9-.168A9.529,9.529,0,0,0,4.759,2.011c2.468.493,4.608-.5,5.121.141.288.359-2.736,1.412-4.5,1.137C3.009,2.843,0,1.552,0,.576A.6.6,0,0,1,.074.291Z" transform="translate(40.913 49.689)" opacity="0.13"/>
        <ellipse id="Oval-5" data-name="Oval" cx="1.097" cy="2.663" rx="1.097" ry="2.663" transform="matrix(0.074, -0.997, 0.997, 0.074, 37.226, 36.907)" fill="#00214e"/>
        <ellipse id="Oval-6" data-name="Oval" cx="2.663" cy="1.097" rx="2.663" ry="1.097" transform="matrix(0.988, -0.154, 0.154, 0.988, 54.438, 34.793)" fill="#00214e"/>
      </g>
    </g>
    <g id="Mask_Group_73" data-name="Mask Group 73" transform="translate(4198 -2816)" clip-path="url(#clip-path-2)">
      <g id="_66" data-name="66" transform="translate(-90 83)" clip-path="url(#clip-path)" style="isolation: isolate">
        <g id="avatar-2" data-name="avatar" transform="translate(330.756 75.184)">
          <path id="Path-14" data-name="Path" d="M75.951,31.916A61.893,61.893,0,0,1,0,31.58l16.318-7.649a15.7,15.7,0,0,0,2.23-1.281c.215-.148.429-.3.634-.463a15.544,15.544,0,0,0,4.286-5.061,14.987,14.987,0,0,0,1.556-4.856,22.775,22.775,0,0,0,.248-3.323c0-1.918-.1-3.836-.124-5.758q-.02-1.6-.034-3.189l.671.335,1.744.9.808.137,9.35,1.59L48.123,4.742l.315,10.731.1,3.508.05,1.7V20.8l4.058,1.65Z" transform="translate(0 49.765)" fill="#f2d4cf"/>
          <path id="Path-15" data-name="Path" d="M23.475,20.8a5.366,5.366,0,0,1-3.377-.523L.087,3.91c-.023-.758-.044.037-.054-.721Q.013,1.6,0,0L.671.335l1.744.9.808.137,9.35,1.59L23.009,4.742l.315,10.731.1,3.508.05,1.7V20.8Z" transform="translate(25.105 49.346)" fill="#a76962"/>
          <path id="Path-16" data-name="Path" d="M51.9,15.774a30.343,30.343,0,0,1,12.9,14.38,26.869,26.869,0,0,0-6.536,1.362h-.02q-.825.282-1.637.62l-.335.144-.533.235h0c-.178.077-.355.161-.53.248s-.335.171-.527.262-.335.178-.52.272-.305.164-.456.252c-.362.2-.718.412-1.066.63q-.208.127-.412.262A26.386,26.386,0,0,0,48.46,37.4c-1.472,1.392-2.847,2.991-4.36,4.42a15.53,15.53,0,0,1-4.487,3.149c-3.233,1.392-6.972,2.2-10.329,3.354l-15.762,5.45A33.221,33.221,0,0,0,9.5,49.611,30.541,30.541,0,0,1,.008,28.148C-.536,3.58,28.325-3.643,47.963,1.622a30.588,30.588,0,0,1,8.79,3.937,25.487,25.487,0,0,1,4.876,4.1,21.168,21.168,0,0,1,4.007,6.2l-.265-.047A37.8,37.8,0,0,0,51.9,15.774Z" transform="translate(11.643 0)" fill="url(#linear-gradient)"/>
          <path id="Path-17" data-name="Path" d="M22.546,17.344a26.869,26.869,0,0,0-6.536,1.362h-.02a15.882,15.882,0,0,0-1.637.62l-.335.144-.54.241c-.178.08-.352.161-.53.248s-.335.171-.527.262-.335.178-.52.272-.305.164-.456.252c-.362.2-.718.412-1.066.63l-.412.262A26.386,26.386,0,0,0,6.194,24.6c-1.472,1.392-2.847,2.991-4.36,4.42-.49.2-.976.412-1.462.624.06-.027-.386-5.7-.372-6.274a37.057,37.057,0,0,1,.748-6.519c.852-4.128.309-7.968,1.13-12.2a26.976,26.976,0,0,1,.671-2.8A11.141,11.141,0,0,1,7.6.234a27.7,27.7,0,0,1,12.187,1.2,19.2,19.2,0,0,1,1.908.718c.3.131.584.272.869.423a4.1,4.1,0,0,0,.812.476,39.294,39.294,0,0,0-13.75-.091A30.343,30.343,0,0,1,22.546,17.344Z" transform="translate(53.901 12.81)" fill="url(#linear-gradient-2)"/>
          <circle id="Oval-7" data-name="Oval" cx="5.701" cy="5.701" r="5.701" transform="translate(16.114 34.671)" fill="#f2d4cf"/>
          <circle id="Oval-8" data-name="Oval" cx="5.104" cy="5.104" r="5.104" transform="translate(18.518 35.268)" fill="#a76962"/>
          <path id="Path-18" data-name="Path" d="M0,20.356,1.469,39.471,23.75,52.49a6.63,6.63,0,0,0,8.277-3.307c3.206-6.566,8.35-16.932,7.673-20.792-1.006-5.7-3.689-7.713-3.689-7.713q.56-3.354,1.113-6.687c.423-2.519.959-5.148.335-7.68C36.745,3.411,34.552,2.17,32.747,0,28,6.117,20.192,9.574,13.374,13.079,9.853,14.93,0,20.356,0,20.356Z" transform="translate(23.7 14.637)" fill="#f2d4cf"/>
          <path id="Path-19" data-name="Path" d="M0,.55A27.02,27.02,0,0,1,9.434.3" transform="translate(34.448 30.489)" fill="none" stroke="#00214e" stroke-miterlimit="10" stroke-width="0.2"/>
          <path id="Path-20" data-name="Path" d="M0,.479A18.659,18.659,0,0,1,5.852.073" transform="translate(54.25 30.597)" fill="none" stroke="#00214e" stroke-miterlimit="10" stroke-width="0.2"/>
          <path id="Path-21" data-name="Path" d="M.621,0a1.14,1.14,0,0,0,.708,2.14" transform="translate(45.906 43.981)" fill="none" stroke="#00214e" stroke-miterlimit="10" stroke-width="0.2"/>
          <path id="Path-22" data-name="Path" d="M.4,0A9.436,9.436,0,0,0,.942,2.783c.191.382.49.7.671,1.087C2.354,5.322,1.157,5.631,0,5.631" transform="translate(52.181 40.513)" fill="none" stroke="#00214e" stroke-miterlimit="10" stroke-width="0.2"/>
          <path id="Path-23" data-name="Path" d="M75.951,19.645A61.893,61.893,0,0,1,0,19.31L16.318,11.66a15.7,15.7,0,0,0,2.23-1.281c.215-.148.429-.3.634-.463a15.544,15.544,0,0,0,4.286-5.061A14.987,14.987,0,0,0,25.024,0a9.611,9.611,0,0,0,.744.651,31.906,31.906,0,0,0,6.647,3.776,33.2,33.2,0,0,0,3.508,1.237A31.362,31.362,0,0,0,46.99,6.835c.516-.04,1.036-.091,1.553-.127l.05,1.7v.111l4.058,1.65Z" transform="translate(0 62.036)" fill="#150047"/>
          <circle id="Oval-9" data-name="Oval" cx="6.372" cy="6.372" r="6.372" transform="translate(35.092 29.698)" fill="none" stroke="#00214e" stroke-miterlimit="10" stroke-width="0.2"/>
          <circle id="Oval-10" data-name="Oval" cx="6.372" cy="6.372" r="6.372" transform="translate(52.912 28.692)" fill="none" stroke="#00214e" stroke-miterlimit="10" stroke-width="0.2"/>
          <path id="Path-24" data-name="Path" d="M0,.436,5.077,0" transform="translate(47.835 35.634)" fill="none" stroke="#00214e" stroke-miterlimit="10" stroke-width="0.2"/>
          <path id="Path-25" data-name="Path" d="M.074.291a.627.627,0,0,1,.9-.168A9.529,9.529,0,0,0,4.759,2.011c2.468.493,4.608-.5,5.121.141.288.359-.064.8-.738,1.358A6.623,6.623,0,0,1,4.158,4.747C1.784,4.3,0,1.552,0,.576A.6.6,0,0,1,.074.291Z" transform="translate(40.913 49.689)" fill="#fff"/>
          <path id="Path-26" data-name="Path" d="M.074.291a.627.627,0,0,1,.9-.168A9.529,9.529,0,0,0,4.759,2.011c2.468.493,4.608-.5,5.121.141.288.359-2.736,1.412-4.5,1.137C3.009,2.843,0,1.552,0,.576A.6.6,0,0,1,.074.291Z" transform="translate(40.913 49.689)" opacity="0.13"/>
          <ellipse id="Oval-11" data-name="Oval" cx="1.097" cy="2.663" rx="1.097" ry="2.663" transform="matrix(0.074, -0.997, 0.997, 0.074, 37.226, 36.907)" fill="#00214e"/>
          <ellipse id="Oval-12" data-name="Oval" cx="2.663" cy="1.097" rx="2.663" ry="1.097" transform="matrix(0.988, -0.154, 0.154, 0.988, 54.438, 34.793)" fill="#00214e"/>
        </g>
      </g>
    </g>
  </g>
</svg>
