<svg id="almond" xmlns="http://www.w3.org/2000/svg" width="42.252" height="42.333" viewBox="0 0 42.252 42.333">
  <g id="Group_17504" data-name="Group 17504" transform="translate(0.653 0.682)">
    <g id="Group_17503" data-name="Group 17503" transform="translate(12.957)">
      <path id="Path_21557" data-name="Path 21557" d="M45.092,6.092V7.456A4.1,4.1,0,0,1,41,3.364V2A4.1,4.1,0,0,1,45.092,6.092Z" transform="translate(-27.361 -2)" fill="#b4dd7f"/>
      <path id="Path_21558" data-name="Path 21558" d="M51.092,4h2.728a4.1,4.1,0,0,1-4.092,4.092H47A4.1,4.1,0,0,1,51.092,4Z" transform="translate(-29.269 -2.636)" fill="#b4dd7f"/>
      <path id="Path_21559" data-name="Path 21559" d="M23.046,5s7.863.75,11.934,5.851A18.079,18.079,0,0,0,30.6,16.518,21.281,21.281,0,0,0,28.5,25.9c-3.812-1.473-6.9-4.508-7.42-7.686A5.483,5.483,0,0,1,21,17.275C21,12.5,23.046,10.456,23.046,5Z" transform="translate(-21 -2.954)" fill="#b4dd7f"/>
    </g>
    <path id="Path_21560" data-name="Path 21560" d="M42.229,10s10.229,4.092,10.229,17.731S42.229,45.461,42.229,45.461A17.265,17.265,0,0,1,34.1,37.353,21.346,21.346,0,0,1,32,27.731v-.239a21.28,21.28,0,0,1,2.1-9.384,18.079,18.079,0,0,1,4.378-5.667A14.953,14.953,0,0,1,42.229,10Z" transform="translate(-11.542 -4.544)" fill="#cf9e76"/>
    <path id="Path_21561" data-name="Path 21561" d="M24.559,41.926c-.491.593-1.03,1.18-1.616,1.773-9.738,9.731-19.96,5.353-19.96,5.353S-1.4,38.83,8.335,29.092a22.388,22.388,0,0,1,6.7-4.712h.007c.518,3.178,3.607,6.213,7.42,7.686V32.3a21.346,21.346,0,0,0,2.1,9.622Z" transform="translate(-2 -9.118)" fill="#cf9e76"/>
  </g>
  <g id="Group_17505" data-name="Group 17505" transform="translate(0 0)">
    <path id="Path_21562" data-name="Path 21562" d="M34.931,7.819h.18a4.779,4.779,0,0,0,4.774-4.774V2.364h-3.41a4.764,4.764,0,0,0-3.706,1.77A4.778,4.778,0,0,0,28.291,1h-.682V3.046A4.778,4.778,0,0,0,30.456,7.41a18.047,18.047,0,0,0-1.723,1.232C24.443,3.833,17.085,3.08,16.763,3.049l-.747-.072v.75a21.148,21.148,0,0,1-1.047,6.384,19.864,19.864,0,0,0-1,5.891c0,.177.014.355.029.532A23.455,23.455,0,0,0,7.55,21.176c-9.947,9.947-5.545,20.6-5.5,20.709l.108.25.251.107A16.865,16.865,0,0,0,8.4,43.251c3.992,0,9.452-1.247,14.714-6.508.353-.353.689-.713,1.015-1.077a18.2,18.2,0,0,0,8,7.565l.253.1.253-.1c.106-.043,10.658-4.425,10.658-18.364,0-9.818-5.231-14.89-8.363-17.049Zm1.544-4.092h1.977a3.415,3.415,0,0,1-3.341,2.728H33.134A3.415,3.415,0,0,1,36.474,3.728Zm-7.5-.682V2.433A3.415,3.415,0,0,1,31.7,5.774v.613A3.415,3.415,0,0,1,28.973,3.046ZM16.28,10.488A22.979,22.979,0,0,0,17.366,4.51c1.917.315,7.141,1.477,10.329,5.032a18.942,18.942,0,0,0-3.427,4.287c-.242-.442-.488-.878-.734-1.3l.659-4.61-1.35-.193-.422,2.956c-1.667-2.672-3.109-4.6-3.131-4.632L18.2,6.866a73.814,73.814,0,0,1,4.239,6.49,24.342,24.342,0,0,0-4.945-1.434l-.224,1.345a19.715,19.715,0,0,1,6.17,2.152,21.617,21.617,0,0,0-1.936,8.19c-3.623-1.7-6.168-4.782-6.168-7.606a18.489,18.489,0,0,1,.946-5.515Zm5.874,25.291c-8.43,8.43-17.324,5.873-18.946,5.306C2.636,39.464.061,30.594,8.515,22.14a22.3,22.3,0,0,1,5.75-4.221c.861,2.891,3.573,5.637,7.212,7.166a22.031,22.031,0,0,0,1.981,9.28C23.048,34.842,22.615,35.317,22.154,35.779Zm10.233,6.073c-1.529-.732-9.551-5.14-9.551-16.984,0-11.953,7.962-16.249,9.544-16.985,1.529.732,9.551,5.14,9.551,16.985C41.93,36.821,33.968,41.117,32.386,41.853Z" transform="translate(-1.042 -1)" fill="#2f4750"/>
    <path id="Path_21563" data-name="Path 21563" d="M47.209,13.181,46.427,14.3c.065.045,6.528,4.643,6.528,11.034h1.364C54.319,18.24,47.5,13.384,47.209,13.181Z" transform="translate(-15.477 -4.874)" fill="#2f4750"/>
    <path id="Path_21564" data-name="Path 21564" d="M36.364,37H35a16.421,16.421,0,0,0,7.857,14.238l.653-1.2A15.272,15.272,0,0,1,36.364,37Z" transform="translate(-11.843 -12.45)" fill="#2f4750"/>
    <path id="Path_21565" data-name="Path 21565" d="M39.519,21.284l-.853-1.065C38.516,20.339,35,23.2,35,27.571h1.364C36.364,23.869,39.487,21.309,39.519,21.284Z" transform="translate(-11.843 -7.113)" fill="#2f4750"/>
    <path id="Path_21566" data-name="Path 21566" d="M51.29,36.256a7.572,7.572,0,0,1,1.848,4.975H54.5a8.811,8.811,0,0,0-2.246-5.938Z" transform="translate(-17.024 -11.907)" fill="#2f4750"/>
    <path id="Path_21567" data-name="Path 21567" d="M42.364,40.6a8.839,8.839,0,0,1,1.25-4.4l-.568-.377-.567-.378A10.075,10.075,0,0,0,41,40.6Z" transform="translate(-13.751 -11.955)" fill="#2f4750"/>
    <path id="Path_21568" data-name="Path 21568" d="M46.263,25.108h1.364a4.059,4.059,0,0,0-2.512-4.057l-.432,1.294A2.735,2.735,0,0,1,46.263,25.108Z" transform="translate(-14.922 -7.377)" fill="#2f4750"/>
    <path id="Path_21569" data-name="Path 21569" d="M47.292,49.61l.965.964C48.349,50.482,50.5,48.3,50.5,46H49.139C49.139,47.734,47.31,49.592,47.292,49.61Z" transform="translate(-15.752 -15.313)" fill="#2f4750"/>
    <path id="Path_21570" data-name="Path 21570" d="M22.435,53.978l.65,1.2c.412-.223.821-.465,1.217-.719l-.736-1.148C23.2,53.546,22.817,53.771,22.435,53.978Z" transform="translate(-7.846 -17.637)" fill="#2f4750"/>
    <path id="Path_21571" data-name="Path 21571" d="M29,48.9c-.123.123-.246.243-.369.361l.944.983c.13-.125.26-.252.388-.381q.309-.308.6-.616l-1-.93C29.38,48.511,29.194,48.706,29,48.9Z" transform="translate(-9.817 -16.049)" fill="#2f4750"/>
    <path id="Path_21572" data-name="Path 21572" d="M25.678,51.826l.816,1.093q.554-.414,1.1-.878L26.709,51q-.51.435-1.031.823Z" transform="translate(-8.878 -16.904)" fill="#2f4750"/>
    <path id="Path_21573" data-name="Path 21573" d="M11.782,34.255l-.97-.958-.08.08c-4.707,4.707-5.726,9.487-5.751,12.669l1.364.011c.023-2.927.971-7.335,5.378-11.742Z" transform="translate(-2.295 -11.272)" fill="#2f4750"/>
    <path id="Path_21574" data-name="Path 21574" d="M20.523,33.238l-.707-1.166a19.159,19.159,0,0,0-3.572,2.844l.964.964A17.776,17.776,0,0,1,20.523,33.238Z" transform="translate(-5.877 -10.883)" fill="#2f4750"/>
    <path id="Path_21575" data-name="Path 21575" d="M10.079,52.517l-.136,1.357c.432.043.873.065,1.31.065a13.508,13.508,0,0,0,5.124-1.011l-.516-1.263A12.144,12.144,0,0,1,10.079,52.517Z" transform="translate(-3.873 -17.114)" fill="#2f4750"/>
    <path id="Path_21576" data-name="Path 21576" d="M24.774,38H23.41c0,1.713-1.14,4.774-3.41,4.774v1.364C23.074,44.138,24.774,40.508,24.774,38Z" transform="translate(-7.072 -12.768)" fill="#2f4750"/>
    <path id="Path_21577" data-name="Path 21577" d="M10,46.519h1.364c0-2.346,2.431-4.21,2.456-4.229L13,41.2C12.878,41.292,10,43.485,10,46.519Z" transform="translate(-3.891 -13.786)" fill="#2f4750"/>
  </g>
</svg>
