<svg xmlns="http://www.w3.org/2000/svg" width="216" height="183.271" viewBox="0 0 216 183.271">
  <g id="credit-card" transform="translate(0 -38.849)">
    <g id="_5" data-name="5" transform="translate(105.368 38.849)">
      <path id="Path_164" data-name="Path 164" d="M323.955,39.086a18.662,18.662,0,0,1,8.345.506,17.032,17.032,0,0,1,10.289,9.142c1.274,2.742,1.515,5.792,2.088,8.724,5.248,29.641,10.416,59.3,15.715,88.931v4.092a17.159,17.159,0,0,1-13.078,14.5c-7.151,1.4-14.356,2.506-21.516,3.881-.008-4.961.008-9.927-.008-14.892q-.019-14.46,0-28.915c.017-4.248,0-8.5.017-12.741A16.852,16.852,0,0,0,313.64,97.043a20.916,20.916,0,0,0-6.387-.726q-24.756.019-49.511,0c-2.282-12.787-4.51-25.578-6.78-38.37a37.369,37.369,0,0,0-1.2-5.729C274.478,47.772,299.229,43.507,323.955,39.086Z" transform="translate(-249.76 -38.849)" fill="#336403"/>
    </g>
    <g id="_4" data-name="4" transform="translate(17.347 52.223)">
      <path id="Path_165" data-name="Path 165" d="M54.519,83.767c24.87-4.438,49.764-8.716,74.621-13.217a37.367,37.367,0,0,1,1.2,5.729c2.27,12.791,4.5,25.582,6.78,38.37-7.53.038-15.069-.11-22.6.072-23.7.143-47.4.017-71.1.063-.7-4-1.439-8-2.1-12.007a16.847,16.847,0,0,1,13.2-19.01Z" transform="translate(-41.12 -70.55)" fill="#55ab02"/>
    </g>
    <g id="_3" data-name="3" transform="translate(0 96.393)">
      <path id="Path_166" data-name="Path 166" d="M8.931,177.309c3.248-1.844,7.058-2.147,10.716-2,23.7-.046,47.406.08,71.1-.063-.114,9.568-.008,19.14-.051,28.709-30.232.1-60.467.017-90.7.042V191.834A16.952,16.952,0,0,1,8.931,177.309Z" transform="translate(0 -175.25)" fill="#78db16"/>
      <path id="Path_167" data-name="Path 167" d="M0,311.26l1.249.118c29.827.013,59.653-.063,89.48.042-.055,22.718-.017,45.436-.021,68.154-24.6-.068-49.2.008-73.8-.038A16.919,16.919,0,0,1,0,363.189V311.26m20,40.61a6.326,6.326,0,0,0,1.485,12.462q14.365.013,28.721,0a6.363,6.363,0,0,0,5.577-3.278,6.249,6.249,0,0,0-.008-6.109,6.413,6.413,0,0,0-5.56-3.286c-9.277-.034-18.558.013-27.835-.021A9.393,9.393,0,0,0,20,351.87Z" transform="translate(0 -253.881)" fill="#78db16"/>
    </g>
    <g id="_2" data-name="2" transform="translate(90.695 96.3)">
      <path id="Path_168" data-name="Path 168" d="M215.035,175.123c7.53-.181,15.069-.034,22.6-.072q24.756,0,49.511,0a20.916,20.916,0,0,1,6.387.726A16.852,16.852,0,0,1,305.7,191.049c-.017,4.244,0,8.492-.017,12.741-30.232.038-60.467-.046-90.7.042C215.026,194.263,214.921,184.691,215.035,175.123Z" transform="translate(-214.98 -175.03)" fill="#4c8613"/>
      <path id="Path_169" data-name="Path 169" d="M215.019,311.64c30.223.089,60.446,0,90.669.042.017,4.965,0,9.931.008,14.892q-.013,18.782,0,37.555a16.93,16.93,0,0,1-11.344,14.77c-2.569.975-5.354.9-8.054.928-23.764-.03-47.533.034-71.3-.034C215,357.076,214.964,334.358,215.019,311.64Z" transform="translate(-214.985 -254.008)" fill="#4c8613"/>
    </g>
    <g id="_1" data-name="1" transform="translate(0 125.059)">
      <path id="Path_170" data-name="Path 170" d="M0,243.284c30.232-.025,60.467.059,90.7-.042s60.467,0,90.7-.042q-.019,14.453,0,28.915c-30.223-.042-60.446.046-90.669-.042-29.827-.105-59.653-.03-89.48-.042L0,271.913Z" transform="translate(0 -243.2)" fill="#f2ffe5"/>
      <path id="Path_171" data-name="Path 171" d="M40.795,407.208a9.393,9.393,0,0,1,2.379-.228c9.277.034,18.558-.013,27.835.021a6.413,6.413,0,0,1,5.56,3.286,6.249,6.249,0,0,1,.008,6.109A6.363,6.363,0,0,1,71,419.674q-14.359,0-28.721,0a6.326,6.326,0,0,1-1.485-12.462Z" transform="translate(-20.798 -337.885)" fill="#f2ffe5"/>
    </g>
  </g>
</svg>
