<svg id="dates" xmlns="http://www.w3.org/2000/svg" width="32.181" height="31.994" viewBox="0 0 32.181 31.994">
  <g id="Group_17479" data-name="Group 17479" transform="translate(14.489 0.244)">
    <path id="Path_21526" data-name="Path 21526" d="M238.353,30.7a7.952,7.952,0,0,1-4.1-2.7,21.355,21.355,0,0,1-3.179-6.173q-1.12-2.938-2.245-5.874c-.238-.614-.472-1.228-.648-1.861a15.868,15.868,0,0,1-.39-5.129,3.479,3.479,0,0,1,1.49-2.666c1.655-1.142,4.691-2.07,8.576,1.9a17.878,17.878,0,0,1,2.876,3.983l2.207,4.054a22.372,22.372,0,0,1,1.62,3.438,12.726,12.726,0,0,1,.238,7.049c-.384,1.358-1.274,1.528-1.6,1.9-.066-.722-.5-1.338-1.281-1.118a5.245,5.245,0,0,0-2.186,1.053c-.446.4-.179.38-.481.9-.075.135.167.141.366.75C239.261,30.285,238.739,30.792,238.353,30.7Z" transform="translate(-227.75 -5.312)" fill="#c25c37"/>
  </g>
  <g id="Group_17480" data-name="Group 17480" transform="translate(14.489 0.245)">
    <path id="Path_21527" data-name="Path 21527" d="M238.349,30.7a7.972,7.972,0,0,1-4.1-2.7,21.4,21.4,0,0,1-3.178-6.175c-.745-1.959-1.5-3.915-2.244-5.874-.239-.613-.471-1.226-.649-1.861a15.846,15.846,0,0,1-.388-5.128A3.474,3.474,0,0,1,229.281,6.3a5.36,5.36,0,0,1,6.039-.116,5.365,5.365,0,0,0-2.684.97,3.484,3.484,0,0,0-1.491,2.666,15.854,15.854,0,0,0,.391,5.129c.176.635.41,1.248.647,1.861q1.122,2.939,2.247,5.874a21.349,21.349,0,0,0,3.178,6.175,8.842,8.842,0,0,0,1.627,1.526C238.94,30.553,238.612,30.769,238.349,30.7Z" transform="translate(-227.746 -5.317)" fill="#b25234"/>
  </g>
  <g id="Group_17481" data-name="Group 17481" transform="translate(14.237 0)">
    <path id="Path_21528" data-name="Path 21528" d="M234.77,27.367a.805.805,0,0,1-.186-.019h0a8.192,8.192,0,0,1-4.228-2.784,21.547,21.547,0,0,1-3.219-6.243q-.558-1.466-1.119-2.928t-1.128-2.946c-.255-.657-.48-1.253-.655-1.884a16.311,16.311,0,0,1-.4-5.21,3.712,3.712,0,0,1,1.6-2.859c1.563-1.078,4.8-2.261,8.9,1.93a18.172,18.172,0,0,1,2.917,4.04l2.206,4.054a22.621,22.621,0,0,1,1.638,3.478,12.922,12.922,0,0,1,.242,7.2,2.836,2.836,0,0,1-1.324,1.75,1.7,1.7,0,0,0-.322.247.252.252,0,0,1-.441-.141,1.134,1.134,0,0,0-.391-.836.654.654,0,0,0-.571-.063,5.107,5.107,0,0,0-2.085,1c-.2.179-.207.222-.229.327a1.475,1.475,0,0,1-.151.422,1.868,1.868,0,0,1,.335.641.252.252,0,0,1,0,.149C236.052,27.037,235.266,27.367,234.77,27.367Zm-.067-.508a1.576,1.576,0,0,0,.929-.29,1.265,1.265,0,0,0-.223-.382.373.373,0,0,1-.079-.447,1.085,1.085,0,0,0,.148-.372.956.956,0,0,1,.384-.594,5.55,5.55,0,0,1,2.289-1.109,1.148,1.148,0,0,1,.991.134,1.418,1.418,0,0,1,.523.77l.068-.045a2.336,2.336,0,0,0,1.118-1.468,12.571,12.571,0,0,0-.235-6.9,22.184,22.184,0,0,0-1.6-3.39L236.807,8.7a17.667,17.667,0,0,0-2.835-3.927c-3.651-3.731-6.5-3.075-8.252-1.868a3.212,3.212,0,0,0-1.381,2.473,15.8,15.8,0,0,0,.381,5.046c.169.609.39,1.193.64,1.838q.562,1.476,1.126,2.947T227.6,18.14a21.192,21.192,0,0,0,3.137,6.1,7.688,7.688,0,0,0,3.962,2.617Z" transform="translate(-223.789 -1.472)" fill="#2f3a5a"/>
  </g>
  <g id="Group_17482" data-name="Group 17482" transform="translate(25.971 22.391)">
    <path id="Path_21529" data-name="Path 21529" d="M409.5,356.322c.56-.265,1.068-.6,1.5-.822.236-.12.464-.248.683-.386a.912.912,0,0,0-.657-1.671q-.054.012-.108.027a5.245,5.245,0,0,0-2.186,1.053c-.446.4-.179.38-.481.9a.347.347,0,0,0-.025.167.882.882,0,0,0,1.274.73Z" transform="translate(-408.229 -353.424)" fill="#e1b378"/>
  </g>
  <g id="Group_17483" data-name="Group 17483" transform="translate(25.72 22.134)">
    <path id="Path_21530" data-name="Path 21530" d="M405.418,352.885a1.169,1.169,0,0,1-.613-.174,1.064,1.064,0,0,1-.52-.889.564.564,0,0,1,.056-.3,1.086,1.086,0,0,0,.149-.373.956.956,0,0,1,.384-.594,5.55,5.55,0,0,1,2.289-1.109c.039-.011.08-.021.122-.03a1.125,1.125,0,0,1,1.308.692,1.148,1.148,0,0,1-.465,1.438c-.218.137-.453.27-.7.4-.174.089-.364.2-.565.315-.284.164-.606.35-.942.51A1.164,1.164,0,0,1,405.418,352.885Zm-.629-1.13a.4.4,0,0,0,0,.053.568.568,0,0,0,.28.474.663.663,0,0,0,.634.036c.318-.151.617-.323.905-.491.207-.12.4-.233.589-.327.235-.12.458-.246.663-.375a.651.651,0,0,0,.267-.823.627.627,0,0,0-.737-.39c-.031.007-.062.014-.093.023a5.1,5.1,0,0,0-2.085,1c-.2.179-.207.222-.229.327a1.543,1.543,0,0,1-.193.494Z" transform="translate(-404.282 -349.39)" fill="#2f3a5a"/>
  </g>
  <g id="Group_17485" data-name="Group 17485" transform="translate(15.798 1.012)" opacity="0.5">
    <g id="Group_17484" data-name="Group 17484">
      <path id="Path_21531" data-name="Path 21531" d="M256.936,39.681a.9.9,0,0,0,.232-.342c.066.011.131.025.2.032a1.009,1.009,0,0,0,.81-.188c.429-.41.04-1.118-.352-1.565l-1.689-1.929c-.118-.135-.244-.3-.19-.475.079-.25.438-.237.685-.151a4.118,4.118,0,0,1,1.982,1.506,4.365,4.365,0,0,0,.538-1.749,1.231,1.231,0,0,0-.132-.785,1.656,1.656,0,0,0-.788-.508,5.291,5.291,0,0,1-2.375-2.063,1.574,1.574,0,0,1-.988-.981,2.528,2.528,0,0,1,.025-1.595,2.745,2.745,0,0,0,.223-.97c-.073-1.148-1.924-1.536-1.984-2.685-.022-.423.225-.825.2-1.248a2.238,2.238,0,0,0-.483-1.072,10.606,10.606,0,0,1-1.328-2.877,2.963,2.963,0,0,1-.151-1.2,1.232,1.232,0,0,1,.647-.975,1.335,1.335,0,0,1,1.613.753,5.254,5.254,0,0,1,.356,1.922,9.757,9.757,0,0,0,.461,2.2.532.532,0,0,0,.188.3,1.5,1.5,0,0,0,.388.088c.279.085.389.415.448.7.263,1.257.365,2.544.658,3.793a2.943,2.943,0,0,0,.465,1.139,2.956,2.956,0,0,1,.371.493c.173.365.044.809.171,1.192.249.751,1.238.862,1.938,1.231a.528.528,0,0,1,.234.2.8.8,0,0,1-.015.51,1.226,1.226,0,0,0,.884,1.354,2.167,2.167,0,0,1,.488.123c.377.194.413.7.5,1.119a2.638,2.638,0,0,0,.988,1.542.269.269,0,0,0,.2.074c.1-.02.144-.133.165-.231a3.145,3.145,0,0,0-1.318-2.886,4.543,4.543,0,0,1-1.075-1.043,1.071,1.071,0,0,1,.126-1.369,3.13,3.13,0,0,0,.493-.327.789.789,0,0,0,.167-.46,1.808,1.808,0,0,0-1.161-1.811c-.383-.136-.841-.156-1.111-.461-.607-.689.441-1.791.1-2.645-.277-.7-1.32-.824-1.607-1.518a3.107,3.107,0,0,1-.115-.86,4.122,4.122,0,0,0-.71-1.654L255.132,19.4a5.835,5.835,0,0,0-1.175-1.505,1.976,1.976,0,0,0-1.786-.453,2.379,2.379,0,0,0-.843.526,6.44,6.44,0,0,0-1.7,2.424,3.586,3.586,0,0,1-.062-1.207c-.062.566-.094,1.134-.113,1.7-.024.077-.05.153-.071.231l-.147-.681a3.017,3.017,0,0,0-.761,3.216c.314,1.129.979,2.126,1.389,3.223.236.631.387,1.291.6,1.928.867,2.542,2.754,4.614,3.964,7,.129.39.277.775.424,1.157a8.519,8.519,0,0,0,.451,1.026,4.353,4.353,0,0,0,.339.747,1.824,1.824,0,0,0,1.29.949Zm-3.325-7.937a4,4,0,0,1-.126-.43,1.039,1.039,0,0,1,.126.357C253.614,31.7,253.609,31.72,253.611,31.745Z" transform="translate(-248.325 -17.385)" fill="#d8633f"/>
    </g>
  </g>
  <g id="Group_17486" data-name="Group 17486" transform="translate(16.261 3.941)">
    <path id="Path_21532" data-name="Path 21532" d="M260.8,73.962a.436.436,0,0,0-.089-.3,4.953,4.953,0,0,1-1.038-1.948,4.487,4.487,0,0,0-.05-.764c-.148-.548-.768-.858-.943-1.4a4.4,4.4,0,0,1-.081-.88c-.11-.988-1.042-1.707-1.257-2.678-.128-.578-.009-1.2-.351-1.716-.151-.229-1.2-1.25-1.376-.7-.111.34.445,1.249.579,1.571A12.462,12.462,0,0,0,257,66.8a9.743,9.743,0,0,1,.562.96c.463,1.011.352,2.241.948,3.18a1.73,1.73,0,0,1,.232.418,1.592,1.592,0,0,1,.037.422,2.6,2.6,0,0,0,1.395,2.32C260.4,74.2,260.758,74.2,260.8,73.962Z" transform="translate(-255.603 -63.422)" fill="#c25c37"/>
  </g>
  <g id="Group_17487" data-name="Group 17487" transform="translate(24.501 4.514)" opacity="0.1">
    <path id="Path_21533" data-name="Path 21533" d="M391.918,86.293a2.17,2.17,0,0,0,.045-1.571c-.19-.368-.6-.646-.612-1.06,0-.129.031-.256.033-.386a2.653,2.653,0,0,0-.358-.956c-.226-.565-.126-1.238-.429-1.766-.221-.385-.634-.646-.8-1.056-.159-.391-.065-.844-.194-1.246a1.941,1.941,0,0,0-.444-.691,11.547,11.547,0,0,1-1.847-2.025,9.105,9.105,0,0,0-.55-1.078c-.165-.226-.381-.408-.564-.619-.352-.407-.555-1.081-.965-1.408-.322.549.185,1.777.543,2.2a3.118,3.118,0,0,1,.329.407c.176.3.191.7.462.922.228.184.568.172.8.352.4.307.263.965.567,1.364.244.321.722.408.935.75a2.1,2.1,0,0,1,.114,1.062,1.839,1.839,0,0,0,.9,1.5,2.165,2.165,0,0,1,.385.239,1.141,1.141,0,0,1,.273.931,3.513,3.513,0,0,0-.018,1c.143.627.784,1.044.938,1.669.126.507-.094,1.069.105,1.551a.214.214,0,0,0,.128.141C391.808,86.552,391.886,86.408,391.918,86.293Z" transform="translate(-385.13 -72.433)" fill="#fff"/>
  </g>
  <g id="Group_17488" data-name="Group 17488" transform="translate(0.242 7.482)">
    <path id="Path_21534" data-name="Path 21534" d="M9.656,119.087a7.953,7.953,0,0,1,4.452,2.062,21.351,21.351,0,0,1,4.061,5.634q1.544,2.74,3.093,5.475c.327.572.649,1.144.917,1.745a15.872,15.872,0,0,1,1.147,5.014,3.479,3.479,0,0,1-1.077,2.857c-1.467,1.375-4.331,2.744-8.762-.6a17.876,17.876,0,0,1-3.436-3.512l-2.784-3.684a22.372,22.372,0,0,1-2.113-3.159,12.727,12.727,0,0,1-1.283-6.935c.176-1.4,1.031-1.7,1.293-2.118.172.7.69,1.25,1.434.915A5.246,5.246,0,0,0,8.6,121.413c.382-.466.12-.4.342-.964.055-.144-.186-.115-.473-.688.347-.13.788-.708,1.183-.674Z" transform="translate(-3.797 -119.085)" fill="#c25c37"/>
  </g>
  <g id="Group_17489" data-name="Group 17489" transform="translate(5.271 7.482)">
    <path id="Path_21535" data-name="Path 21535" d="M83.688,119.081a7.973,7.973,0,0,1,4.451,2.062,21.42,21.42,0,0,1,4.06,5.634c1.028,1.826,2.064,3.649,3.092,5.475.327.57.648,1.143.918,1.744a15.845,15.845,0,0,1,1.146,5.014,3.474,3.474,0,0,1-1.076,2.858,5.362,5.362,0,0,1-5.955,1.012,5.365,5.365,0,0,0,2.51-1.358,3.483,3.483,0,0,0,1.078-2.858,15.859,15.859,0,0,0-1.148-5.014c-.268-.6-.591-1.174-.916-1.744q-1.546-2.74-3.093-5.475a21.332,21.332,0,0,0-4.06-5.634,8.842,8.842,0,0,0-1.836-1.267C83.127,119.32,83.418,119.056,83.688,119.081Z" transform="translate(-82.859 -119.079)" fill="#b25234"/>
  </g>
  <g id="Group_17490" data-name="Group 17490" transform="translate(0 7.231)">
    <path id="Path_21536" data-name="Path 21536" d="M15.072,139.9a8.891,8.891,0,0,1-5.293-2.127,18.161,18.161,0,0,1-3.485-3.561L3.51,130.534a22.65,22.65,0,0,1-2.136-3.2,12.92,12.92,0,0,1-1.309-7.082,2.837,2.837,0,0,1,1.05-1.928,1.7,1.7,0,0,0,.282-.293.252.252,0,0,1,.457.074,1.135,1.135,0,0,0,.511.769.658.658,0,0,0,.575-.022,5.1,5.1,0,0,0,1.914-1.3c.169-.207.172-.251.178-.356a1.481,1.481,0,0,1,.087-.439,1.876,1.876,0,0,1-.428-.584.251.251,0,0,1-.025-.147c.058-.414.99-.932,1.455-.89h.005a8.192,8.192,0,0,1,4.594,2.123,21.616,21.616,0,0,1,4.112,5.7q.769,1.365,1.54,2.726t1.553,2.75c.349.611.66,1.167.928,1.766A16.344,16.344,0,0,1,20.02,135.3a3.712,3.712,0,0,1-1.156,3.064,5.491,5.491,0,0,1-3.792,1.54ZM1.512,118.646l-.06.055a2.335,2.335,0,0,0-.888,1.618,12.555,12.555,0,0,0,1.257,6.788A22.2,22.2,0,0,0,3.9,130.219l2.792,3.691a17.662,17.662,0,0,0,3.387,3.463c4.166,3.148,6.888,2.075,8.438.621a3.211,3.211,0,0,0,1-2.651,15.828,15.828,0,0,0-1.126-4.935c-.258-.578-.563-1.122-.905-1.723q-.776-1.376-1.553-2.749t-1.54-2.726a21.241,21.241,0,0,0-4.009-5.568,7.688,7.688,0,0,0-4.307-2,1.575,1.575,0,0,0-.875.425,1.256,1.256,0,0,0,.277.344.374.374,0,0,1,.145.431,1.079,1.079,0,0,0-.091.39.954.954,0,0,1-.291.645,5.551,5.551,0,0,1-2.1,1.436,1.148,1.148,0,0,1-1,.015,1.416,1.416,0,0,1-.632-.684Z" transform="translate(0 -115.141)" fill="#2f3a5a"/>
  </g>
  <g id="Group_17491" data-name="Group 17491" transform="translate(1.714 7.984)">
    <path id="Path_21537" data-name="Path 21537" d="M29.245,127.125c-.514.346-.967.755-1.362,1.035-.215.154-.422.315-.618.483a.912.912,0,0,0,.9,1.556q.052-.019.1-.042a5.246,5.246,0,0,0,2.005-1.366c.382-.466.12-.4.342-.964a.348.348,0,0,0,0-.169.882.882,0,0,0-1.369-.534Z" transform="translate(-26.938 -126.965)" fill="#e1b378"/>
  </g>
  <g id="Group_17492" data-name="Group 17492" transform="translate(1.465 7.736)">
    <path id="Path_21538" data-name="Path 21538" d="M24.168,126.868a1.171,1.171,0,0,1-.724-2.062c.194-.167.408-.334.636-.5.159-.113.33-.251.512-.4.257-.2.547-.437.855-.644a1.165,1.165,0,0,1,1.11-.1,1.063,1.063,0,0,1,.646.8.56.56,0,0,1-.012.3,1.077,1.077,0,0,0-.091.389.954.954,0,0,1-.291.645,5.55,5.55,0,0,1-2.1,1.436c-.038.017-.077.033-.117.048A1.21,1.21,0,0,1,24.168,126.868Zm1.559-3.181c-.292.2-.562.411-.823.62-.187.149-.363.29-.533.411-.216.154-.418.312-.6.47a.65.65,0,0,0-.141.853.627.627,0,0,0,.787.277c.03-.011.059-.023.089-.036a5.1,5.1,0,0,0,1.914-1.3c.169-.207.172-.251.178-.356a1.541,1.541,0,0,1,.116-.521.367.367,0,0,0-.006-.052.569.569,0,0,0-.348-.428.664.664,0,0,0-.633.059Z" transform="translate(-23.033 -123.07)" fill="#2f3a5a"/>
  </g>
  <g id="Group_17494" data-name="Group 17494" transform="translate(2.077 9.68)" opacity="0.5">
    <g id="Group_17493" data-name="Group 17493">
      <path id="Path_21539" data-name="Path 21539" d="M37.692,153.629a.9.9,0,0,0-.179.373c-.067,0-.133-.006-.2,0a1.009,1.009,0,0,0-.773.307c-.363.47.126,1.111.58,1.5l1.956,1.656c.137.115.286.265.258.442-.041.259-.4.3-.656.25a4.119,4.119,0,0,1-2.184-1.195,4.365,4.365,0,0,0-.272,1.811,1.231,1.231,0,0,0,.246.756,1.657,1.657,0,0,0,.855.385,5.29,5.29,0,0,1,2.655,1.69,1.574,1.574,0,0,1,1.123.825A2.528,2.528,0,0,1,41.315,164a2.744,2.744,0,0,0-.075.993c.243,1.124,2.13,1.232,2.361,2.36.085.415-.1.849-.017,1.265a2.241,2.241,0,0,0,.636.988,10.605,10.605,0,0,1,1.74,2.648,2.962,2.962,0,0,1,.327,1.165,1.232,1.232,0,0,1-.494,1.059,1.334,1.334,0,0,1-1.706-.505,5.265,5.265,0,0,1-.638-1.848,9.753,9.753,0,0,0-.782-2.1.532.532,0,0,0-.23-.27,1.534,1.534,0,0,0-.4-.029c-.289-.042-.446-.352-.547-.626-.446-1.2-.739-2.461-1.215-3.654a2.943,2.943,0,0,0-.629-1.056,2.951,2.951,0,0,1-.44-.432c-.226-.335-.164-.793-.346-1.153-.357-.706-1.353-.669-2.1-.929a.528.528,0,0,1-.261-.163.8.8,0,0,1-.061-.507A1.226,1.226,0,0,0,35.364,160a2.163,2.163,0,0,1-.5-.05c-.4-.136-.514-.635-.663-1.031a2.639,2.639,0,0,0-1.207-1.378.269.269,0,0,0-.212-.043c-.095.034-.122.153-.129.253a3.145,3.145,0,0,0,1.732,2.658,4.553,4.553,0,0,1,1.218.872,1.072,1.072,0,0,1,.079,1.373c-.138.142-.331.23-.44.4a.789.789,0,0,0-.1.48,1.808,1.808,0,0,0,1.417,1.618c.4.078.855.029,1.167.291.7.591-.17,1.836.29,2.631.377.649,1.428.619,1.815,1.262a3.1,3.1,0,0,1,.242.833,4.122,4.122,0,0,0,.948,1.531l1.464,1.731a5.836,5.836,0,0,0,1.386,1.314,1.976,1.976,0,0,0,1.832.183,2.38,2.38,0,0,0,.755-.645,6.441,6.441,0,0,0,1.319-2.649,3.589,3.589,0,0,1,.24,1.183c-.023-.569-.075-1.135-.141-1.7.012-.08.027-.159.035-.239l.247.652a3.019,3.019,0,0,0,.275-3.295c-.478-1.07-1.283-1.957-1.853-2.981-.327-.589-.574-1.219-.884-1.817-1.235-2.385-3.409-4.154-4.959-6.333-.186-.366-.388-.725-.591-1.081a8.524,8.524,0,0,0-.6-.948,4.352,4.352,0,0,0-.444-.687,1.824,1.824,0,0,0-1.414-.749Zm4.466,7.355a3.977,3.977,0,0,1,.189.406,1.041,1.041,0,0,1-.178-.334C42.162,161.032,42.163,161.007,42.158,160.984Z" transform="translate(-32.647 -153.629)" fill="#d8633f"/>
    </g>
  </g>
  <g id="Group_17495" data-name="Group 17495" transform="translate(11.347 17.714)">
    <path id="Path_21540" data-name="Path 21540" d="M178.357,280.168a.436.436,0,0,0,.132.28c.478.57,1.138,1.049,1.315,1.772a4.491,4.491,0,0,0,.163.748c.228.52.887.734,1.14,1.242a4.388,4.388,0,0,1,.211.859c.256.96,1.283,1.534,1.641,2.461.212.553.187,1.182.6,1.645.183.2,1.369,1.058,1.465.488.06-.352-.625-1.169-.806-1.467a12.455,12.455,0,0,0-1.043-1.509,9.741,9.741,0,0,1-.7-.866c-.608-.931-.681-2.163-1.408-3a1.734,1.734,0,0,1-.291-.379,1.592,1.592,0,0,1-.1-.412,2.6,2.6,0,0,0-1.724-2.087C178.717,279.869,178.367,279.921,178.357,280.168Z" transform="translate(-178.357 -279.91)" fill="#c25c37"/>
  </g>
  <g id="Group_17496" data-name="Group 17496" transform="translate(0.995 15.317)" opacity="0.1">
    <path id="Path_21541" data-name="Path 21541" d="M15.7,242.507a2.164,2.164,0,0,0,.189,1.559c.242.336.687.55.763.956.024.126.007.258.025.386a2.637,2.637,0,0,0,.5.891c.309.525.308,1.205.687,1.682.277.348.723.545.95.927.215.363.19.825.377,1.2a1.941,1.941,0,0,0,.542.617,11.48,11.48,0,0,1,2.127,1.728,9.1,9.1,0,0,0,.7.984c.2.2.437.347.65.528.41.35.71.988,1.163,1.249.237-.59-.447-1.729-.865-2.1a3.121,3.121,0,0,1-.386-.352c-.219-.27-.293-.667-.594-.843-.253-.148-.588-.086-.844-.229-.438-.245-.4-.915-.763-1.265-.289-.281-.775-.3-1.036-.6a2.105,2.105,0,0,1-.271-1.033,1.839,1.839,0,0,0-1.109-1.35,2.162,2.162,0,0,1-.416-.179,1.141,1.141,0,0,1-.409-.88,3.51,3.51,0,0,0-.131-.992c-.235-.6-.931-.916-1.175-1.511-.2-.483-.066-1.071-.334-1.519a.214.214,0,0,0-.148-.12c-.12-.008-.176.145-.191.264Z" transform="translate(-15.642 -242.243)" fill="#fff"/>
  </g>
</svg>
