<svg xmlns="http://www.w3.org/2000/svg" width="18.51" height="18.908" viewBox="0 0 18.51 18.908">
  <g id="COCO_Duotone_Calendar" data-name="COCO/Duotone/Calendar" transform="translate(-2.745 -2.847)">
    <path id="Vector" d="M.333,6.353A7.179,7.179,0,0,1,5.62.943a12.331,12.331,0,0,1,5.76,0,7.179,7.179,0,0,1,5.287,5.41,13.2,13.2,0,0,1,0,5.9,7.179,7.179,0,0,1-5.287,5.41,12.331,12.331,0,0,1-5.76,0,7.179,7.179,0,0,1-5.287-5.41A13.2,13.2,0,0,1,.333,6.353Z" transform="translate(3.5 3)" fill="rgba(76,134,19,0.15)" stroke="#4c8613" stroke-width="1.5"/>
    <path id="Vector-2" data-name="Vector" d="M.64,5.279H16.36M4.57,0V2.514M12.43,0V2.514" transform="translate(3.5 3)" fill="rgba(54,56,83,0.15)" stroke="#4c8613" stroke-width="1.5"/>
    <path id="Vector-3" data-name="Vector" d="M3.645,3.15a1.527,1.527,0,0,0,.657-1.3A1.845,1.845,0,0,0,2.259,0,1.852,1.852,0,0,0,.207,1.845a1.549,1.549,0,0,0,.657,1.3A1.741,1.741,0,0,0,0,4.671C0,5.832.855,6.552,2.259,6.552s2.259-.72,2.259-1.881A1.73,1.73,0,0,0,3.645,3.15ZM2.259,1.17a.729.729,0,0,1,.81.738.741.741,0,0,1-.81.747.741.741,0,0,1-.81-.747A.729.729,0,0,1,2.259,1.17Zm0,4.212c-.594,0-1.026-.306-1.026-.873s.432-.864,1.026-.864,1.026.306,1.026.864S2.853,5.382,2.259,5.382Z" transform="translate(9.797 10.774)" fill="#4c8613"/>
  </g>
</svg>
