<svg xmlns="http://www.w3.org/2000/svg" width="15.583" height="15.002" viewBox="0 0 15.583 15.002">
  <path id="Icon_ionic-ios-heart-empty" data-name="Icon ionic-ios-heart-empty" d="M14.4,3.938h-.036a4.125,4.125,0,0,0-3.444,1.885A4.125,4.125,0,0,0,7.472,3.938H7.436a4.1,4.1,0,0,0-4.061,4.1,8.825,8.825,0,0,0,1.733,4.811,30.371,30.371,0,0,0,5.808,5.594,30.371,30.371,0,0,0,5.808-5.594,8.825,8.825,0,0,0,1.733-4.811A4.1,4.1,0,0,0,14.4,3.938Zm1.508,8.31a27.808,27.808,0,0,1-4.989,4.916,27.85,27.85,0,0,1-4.989-4.92A7.822,7.822,0,0,1,4.39,8.034,3.076,3.076,0,0,1,7.443,4.956h.033a3.04,3.04,0,0,1,1.49.392,3.168,3.168,0,0,1,1.1,1.033,1.019,1.019,0,0,0,1.7,0,3.2,3.2,0,0,1,1.1-1.033,3.04,3.04,0,0,1,1.49-.392H14.4A3.076,3.076,0,0,1,17.45,8.034,7.921,7.921,0,0,1,15.905,12.247Z" transform="translate(-3.125 -3.688)" fill="#4c8613" stroke="#4c8613" stroke-linecap="round" stroke-linejoin="round" stroke-miterlimit="10" stroke-width="0.5"/>
</svg>
