<svg id="fruit" xmlns="http://www.w3.org/2000/svg" width="44.177" height="44.177" viewBox="0 0 44.177 44.177">
  <g id="Group_17477" data-name="Group 17477" transform="translate(0.713 0.713)">
    <g id="Group_17465" data-name="Group 17465" transform="translate(35.135 5.33)">
      <path id="Path_21501" data-name="Path 21501" d="M58.043,9.48a9.174,9.174,0,0,1,.884,3.933,65.879,65.879,0,0,1-6.085,10.945L51.8,24.1l1.425-4.275L51.31,20.973a75.228,75.228,0,0,0,5.9-9.826Z" transform="translate(-51.31 -9.48)" fill="#b4dd7f"/>
    </g>
    <g id="Group_17466" data-name="Group 17466" transform="translate(21.633 1.739)">
      <path id="Path_21502" data-name="Path 21502" d="M51.741,6.578,37.02,21.3v.007a12.071,12.071,0,0,0-4.66.378L49.6,4.44a9.507,9.507,0,0,1,2.138,2.138Z" transform="translate(-32.36 -4.44)" fill="#b4dd7f"/>
    </g>
    <g id="Group_17467" data-name="Group 17467" transform="translate(15.255 0)">
      <path id="Path_21503" data-name="Path 21503" d="M45.577,2.884l-1.667.834A74.61,74.61,0,0,0,25.127,17.1a6.386,6.386,0,0,0-1.717-3.2l.007-.007A66.042,66.042,0,0,1,41.644,2,9.173,9.173,0,0,1,45.577,2.884Z" transform="translate(-23.41 -2)" fill="#b4dd7f"/>
    </g>
    <g id="Group_17468" data-name="Group 17468" transform="translate(2.138 1.425)">
      <path id="Path_21504" data-name="Path 21504" d="M13.55,11.268V12.55l-2.594-.435A7.117,7.117,0,0,1,5,5.09V4l2.016.171A7.123,7.123,0,0,1,13.55,11.268Z" transform="translate(-5 -4)" fill="#b4dd7f"/>
    </g>
    <g id="Group_17469" data-name="Group 17469" transform="translate(10.688)">
      <path id="Path_21505" data-name="Path 21505" d="M19.75,3.717a83.836,83.836,0,0,0-2.123,8.294A4.561,4.561,0,0,0,17,11.976V4.016A1.429,1.429,0,0,1,17.42,3l.713-.713A1.008,1.008,0,0,1,19.85,3v.114a1.917,1.917,0,0,1-.1.6Z" transform="translate(-17 -2)" fill="#cf9e76"/>
    </g>
    <g id="Group_17470" data-name="Group 17470" transform="translate(0 9.976)">
      <path id="Path_21506" data-name="Path 21506" d="M13.315,16.036c.014-.007.036,0,.05,0a6.29,6.29,0,0,1,3.89,1.888A6.329,6.329,0,0,1,19.1,22.413v3.342a8.82,8.82,0,0,0,.135,1.56,12.111,12.111,0,0,0,.485,19.075,10.184,10.184,0,0,1-6.562,2.387h-.941A10.221,10.221,0,0,1,3.247,33.664l1.9-3.477a9.275,9.275,0,0,0,1.133-4.432V22.413A6.423,6.423,0,0,1,12.688,16v4.275Z" transform="translate(-2 -16)" fill="#fcd770"/>
    </g>
    <g id="Group_17471" data-name="Group 17471" transform="translate(11.365 0)">
      <path id="Path_21507" data-name="Path 21507" d="M21.848,13.892l-.007.007a6.29,6.29,0,0,0-3.89-1.888l1.461-1.461A29.2,29.2,0,0,1,40.053,2h.021A66.042,66.042,0,0,0,21.848,13.892Z" transform="translate(-17.95 -2)" fill="#a0d468"/>
    </g>
    <g id="Group_17472" data-name="Group 17472" transform="translate(16.973 0.884)">
      <path id="Path_21508" data-name="Path 21508" d="M47.723,4.1,30.48,21.339a12.054,12.054,0,0,0-4.4,2.309,8.821,8.821,0,0,1-.135-1.56V18.745a6.385,6.385,0,0,0-.128-1.29A74.61,74.61,0,0,1,44.6,4.074L46.27,3.24A9.258,9.258,0,0,1,47.723,4.1Z" transform="translate(-25.82 -3.24)" fill="#a0d468"/>
    </g>
    <g id="Group_17473" data-name="Group 17473" transform="translate(26.293 3.876)">
      <path id="Path_21509" data-name="Path 21509" d="M38.9,22.161,53.621,7.44a9.259,9.259,0,0,1,.855,1.454l-.834,1.667a75.226,75.226,0,0,1-5.9,9.826l-1.646.99L44.672,19.24l-.093.356a6.615,6.615,0,0,1-2.195,3.5,11.928,11.928,0,0,0-3.484-.926Z" transform="translate(-38.9 -7.44)" fill="#a0d468"/>
    </g>
    <g id="Group_17474" data-name="Group 17474" transform="translate(34.993 9.263)">
      <path id="Path_21510" data-name="Path 21510" d="M54.594,26.4l-1.81-.456A65.882,65.882,0,0,0,58.87,15v.021a29.14,29.14,0,0,1-6.185,17.956,11.779,11.779,0,0,0-1.575-3.356A15.132,15.132,0,0,1,54.594,26.4Z" transform="translate(-51.11 -15)" fill="#a0d468"/>
    </g>
    <g id="Group_17475" data-name="Group 17475" transform="translate(29.777 15.676)">
      <path id="Path_21511" data-name="Path 21511" d="M50.68,28.532l1.81.456a15.132,15.132,0,0,0-3.484,3.221,12.136,12.136,0,0,0-5.216-4.354,6.615,6.615,0,0,0,2.195-3.5L46.077,24,47.5,26.138l1.646-.99L51.065,24,49.64,28.275Z" transform="translate(-43.79 -24)" fill="#8cc152"/>
    </g>
    <g id="Group_17476" data-name="Group 17476" transform="translate(12.826 18.526)">
      <path id="Path_21512" data-name="Path 21512" d="M36.951,29a12.136,12.136,0,0,1,5.216,4.354,11.779,11.779,0,0,1,1.575,3.356v.007a12.145,12.145,0,1,1-10.275-8.643A11.928,11.928,0,0,1,36.951,29Z" transform="translate(-20 -28)" fill="#ff826e"/>
    </g>
  </g>
  <g id="Group_17478" data-name="Group 17478" transform="translate(0 0)">
    <path id="Path_21513" data-name="Path 21513" d="M24,42.82q0,.39.032.772l1.419-.118c-.017-.216-.026-.434-.026-.654a7.788,7.788,0,0,1,1.47-4.572l-1.156-.832A9.2,9.2,0,0,0,24,42.82Z" transform="translate(-7.612 -11.468)" fill="#466824"/>
    <path id="Path_21514" data-name="Path 21514" d="M24.409,48.106a9.205,9.205,0,0,0,.549,1.544l1.3-.594a7.749,7.749,0,0,1-.463-1.306Z" transform="translate(-7.729 -14.439)" fill="#466824"/>
    <path id="Path_21515" data-name="Path 21515" d="M6.425,45.605a6.683,6.683,0,0,1,.813-3.189L7.9,41.2,6.65,40.52l-.663,1.214A8.115,8.115,0,0,0,5,45.605a8.014,8.014,0,0,0,.068,1.05l1.412-.185A6.678,6.678,0,0,1,6.425,45.605Z" transform="translate(-2.15 -12.36)" fill="#466824"/>
    <path id="Path_21516" data-name="Path 21516" d="M5.607,51.137a8.159,8.159,0,0,0,1.962,3.125l1-1.012a6.727,6.727,0,0,1-1.617-2.576Z" transform="translate(-2.324 -15.28)" fill="#466824"/>
    <path id="Path_21517" data-name="Path 21517" d="M45.177,11a10.008,10.008,0,0,0-10-10,29.7,29.7,0,0,0-21,8.622,60.183,60.183,0,0,1,1.65-5.966,2.575,2.575,0,0,0,.135-.826V2.72A1.72,1.72,0,0,0,13.027,1.5l-.713.713a2.125,2.125,0,0,0-.626,1.512V5.941A7.847,7.847,0,0,0,5.926,2.6L3.138,2.363V4.227a7.809,7.809,0,0,0,5.9,7.594A7.131,7.131,0,0,0,5.275,18.1v3.338a8.582,8.582,0,0,1-1.044,4.094l-1.9,3.476a10.933,10.933,0,0,0,9.6,16.168h.936a10.936,10.936,0,0,0,6.584-2.217,12.794,12.794,0,0,0,19.6-13.835A30.044,30.044,0,0,0,45.177,11Zm-7.6,14.677a14.283,14.283,0,0,1,3-2.7l.746-.5A28.5,28.5,0,0,1,38.5,27.464,12.777,12.777,0,0,0,37.58,25.673Zm6.165-14.837A65.331,65.331,0,0,1,38.5,20.428l1.548-4.642-.812.487a75.6,75.6,0,0,0,4.147-7.244l.086-.172A8.518,8.518,0,0,1,43.745,10.836Zm-.231,3.8a28.684,28.684,0,0,1-1.978,7.342l-2.015-.5a66.822,66.822,0,0,0,3.993-6.838Zm-.732-7.588L42.11,8.392a74.084,74.084,0,0,1-5.763,9.616l-.93.558-1.864-2.8L42.6,6.722c.062.108.123.216.181.326ZM31.319,20.418a12.7,12.7,0,0,0-1.845-.569l3.94-3.94L33,17.573A5.885,5.885,0,0,1,31.319,20.418Zm2.69-1.4.977,1.465,2.493-1.5L36.42,22.167l2.133.534a15.681,15.681,0,0,0-1.8,1.771,12.915,12.915,0,0,0-4.044-3.422,7.232,7.232,0,0,0,1.3-2.028ZM41.777,5.53,27.727,19.58c-.355-.029-.712-.054-1.075-.054-.4,0-.8.024-1.191.061L40.647,4.4a8.729,8.729,0,0,1,1.13,1.13Zm-6.437-3.1a8.525,8.525,0,0,1,1.981.274l-.172.086A75.08,75.08,0,0,0,19.031,15.508a7.132,7.132,0,0,0-1.056-1.833A65.069,65.069,0,0,1,35.34,2.433Zm-15.8,19.256c0-.083-.011-.166-.011-.249V18.1a7.05,7.05,0,0,0-.083-1.025A73.714,73.714,0,0,1,37.786,4.067L39.129,3.4c.11.058.219.119.326.182l-16.5,16.5a12.794,12.794,0,0,0-3.422,1.615ZM31.547,2.662a66.494,66.494,0,0,0-14.565,9.989A7.1,7.1,0,0,0,14.513,11.3l.529-.529a28.262,28.262,0,0,1,16.5-8.105ZM13.113,3.728a.709.709,0,0,1,.209-.5l.713-.713a.295.295,0,0,1,.5.209v.11a1.172,1.172,0,0,1-.061.374Q13.7,5.531,13.113,7.917Zm-8.55.5V3.912l1.245.1a6.45,6.45,0,0,1,5.858,5.93L8.628,6.909,7.621,7.917l2.7,2.7-.4-.067A6.394,6.394,0,0,1,4.563,4.227Zm8.306,39.525h-.936a9.507,9.507,0,0,1-8.347-14.06l1.9-3.476A10.01,10.01,0,0,0,6.7,21.439V18.1a5.706,5.706,0,0,1,4.988-5.651v2.619a1.574,1.574,0,0,1-.713-.7l-.075-.15-1.275.638.075.15a3.018,3.018,0,0,0,5.4,0l.075-.15L13.9,14.219l-.075.151a1.591,1.591,0,0,1-.589.645q.16-1.245.371-2.483A5.71,5.71,0,0,1,18.1,18.1v3.338a9.97,9.97,0,0,0,.093,1.3,12.775,12.775,0,0,0,.095,19.321,9.522,9.522,0,0,1-5.42,1.7Zm13.783,0a11.4,11.4,0,1,1,11.4-11.4A11.414,11.414,0,0,1,26.651,43.752Z" transform="translate(-1 -1)" fill="#466824"/>
  </g>
</svg>
