<svg xmlns="http://www.w3.org/2000/svg" width="29.914" height="23.607" viewBox="0 0 29.914 23.607">
  <g id="money" transform="translate(0 -52.768)">
    <g id="Group_17554" data-name="Group 17554" transform="translate(0.687 53.517)">
      <g id="Group_17552" data-name="Group 17552" transform="translate(20.234 16.893)">
        <path id="Path_21579" data-name="Path 21579" d="M358.378,381.388v2.061c0,.718-1.874,1.28-4.184,1.28s-4.153-.562-4.153-1.28v-1.842c.344.593,2.061,1.062,4.122,1.062s4.215-.593,4.215-1.28Z" transform="translate(-350.041 -379.39)" fill="#daffb7"/>
        <path id="Path_21580" data-name="Path 21580" d="M358.378,347.951v2h0c0,.687-1.936,1.28-4.215,1.28s-3.778-.468-4.122-1.062v-2.123h0c.25.625,2,1.124,4.122,1.124S358.222,348.638,358.378,347.951Z" transform="translate(-350.041 -347.951)" fill="#daffb7"/>
      </g>
      <path id="Path_21581" data-name="Path 21581" d="M357.884,326.8c-.156.687-2,1.218-4.215,1.218s-3.872-.5-4.122-1.124a.344.344,0,0,1-.031-.156v-.156c.219-.625,1.967-1.124,4.091-1.124h.062a10.3,10.3,0,0,1,3.279.468c.593.219.937.5.937.812Z" transform="translate(-329.312 -309.906)" fill="#f3ffe8"/>
      <path id="Path_21582" data-name="Path 21582" d="M414.521,138.5V136.66a.375.375,0,0,0,.062-.25.531.531,0,0,0-.281-.437V129.04h1.842a1.717,1.717,0,0,1,1.748,1.686c0,.011,0,.021,0,.032V141.25h-.031a10.3,10.3,0,0,0-3.279-.468h-.062Z" transform="translate(-390.227 -125.231)" fill="#f3ffe8"/>
      <path id="Path_21583" data-name="Path 21583" d="M285.1,231.767a.531.531,0,0,1,.281.437.375.375,0,0,1-.062.25c-.375.593-2.217,1.03-4.247,1.03s-4.028-.531-4.153-1.187a.125.125,0,0,1-.031-.094c0-.687,1.874-1.28,4.184-1.28A7.651,7.651,0,0,1,285.1,231.767Z" transform="translate(-261.028 -221.025)" fill="#f3ffe8"/>
      <g id="Group_17553" data-name="Group 17553" transform="translate(15.956 11.304)">
        <path id="Path_21584" data-name="Path 21584" d="M308.907,289.251v.375c-2.123,0-3.872.5-4.091,1.124l-.156-.062-1.218-.062h-.125a3.9,3.9,0,0,0-1.343-2.248v-.062a11,11,0,0,0,2.654.281c2.217,0,4.122-.562,4.247-1.249Z" transform="translate(-300.57 -285.379)" fill="#f3ffe8"/>
        <path id="Path_21585" data-name="Path 21585" d="M286.8,254.557V256.4c-.125.687-2.03,1.249-4.247,1.249a10.993,10.993,0,0,1-2.654-.281v.062a3.653,3.653,0,0,0-1.436-.812h0v-2.186c.125.656,1.936,1.187,4.153,1.187S286.428,255.15,286.8,254.557Z" transform="translate(-278.465 -254.432)" fill="#daffb7"/>
      </g>
      <path id="Path_21586" data-name="Path 21586" d="M35.569,69.116v6.932a7.652,7.652,0,0,0-4.028-.843c-2.311,0-4.184.593-4.184,1.28a.125.125,0,0,0,.031.094v2.186h0a3.841,3.841,0,0,0-1.218-.187,4.059,4.059,0,0,0-2.717,1.062l-.094-.094H13.243A1.749,1.749,0,0,1,11.494,77.8V67.023a1.749,1.749,0,0,1,1.749-1.717H33.852a1.717,1.717,0,0,1,1.717,1.717Zm-7.557,3.31a4.5,4.5,0,1,0-4.5,4.5h.031A4.5,4.5,0,0,0,28.012,72.425ZM15.9,68.335a1.249,1.249,0,1,0-1.249,1.249A1.249,1.249,0,0,0,15.9,68.335Z" transform="translate(-11.494 -65.306)" fill="#f3ffe8"/>
      <path id="Path_21587" data-name="Path 21587" d="M305.831,345.255v1.624h-.219a9.929,9.929,0,0,1-2.529-.281h-.062a4.028,4.028,0,0,0,1.343-3.029,3.874,3.874,0,0,0-.094-.843h.125l1.218.062.156.062v.156a.345.345,0,0,0,.031.156h-.031Z" transform="translate(-285.597 -326.145)" fill="#daffb7"/>
      <path id="Path_21588" data-name="Path 21588" d="M197.212,291.114a3.868,3.868,0,0,1,.094.843,4.083,4.083,0,0,1-8.119.625,4.243,4.243,0,0,1-.062-.625,3.966,3.966,0,0,1,1.374-3.029,4.059,4.059,0,0,1,2.717-1.062,3.84,3.84,0,0,1,1.218.187,3.653,3.653,0,0,1,1.436.812A3.9,3.9,0,0,1,197.212,291.114Zm-1.9.843a2.092,2.092,0,1,0-2.092,2.092h0A2.092,2.092,0,0,0,195.307,291.957Z" transform="translate(-178.508 -274.565)" fill="#f3ffe8"/>
      <path id="Path_21589" data-name="Path 21589" d="M224.655,321.306a2.092,2.092,0,1,1-2.092,2.092h0A2.092,2.092,0,0,1,224.655,321.306Z" transform="translate(-209.948 -306.005)" fill="#daffb7"/>
      <path id="Path_21590" data-name="Path 21590" d="M142.423,109.192a4.5,4.5,0,1,1-4.5,4.5,4.5,4.5,0,0,1,4.5-4.5Z" transform="translate(-130.369 -106.569)" fill="#daffb7"/>
      <path id="Path_21591" data-name="Path 21591" d="M79.881,304.065l.094.094a3.966,3.966,0,0,0-1.374,3.029,4.241,4.241,0,0,0,.062.625H73.292a1.717,1.717,0,0,1-1.717-1.717v-2.03Z" transform="translate(-67.984 -289.795)" fill="#f3ffe8"/>
      <circle id="Ellipse_79" data-name="Ellipse 79" cx="1.249" cy="1.249" r="1.249" transform="translate(1.905 1.78)" fill="#daffb7"/>
    </g>
    <g id="Group_17555" data-name="Group 17555" transform="translate(0 52.768)">
      <path id="Path_21592" data-name="Path 21592" d="M34.788,88.384a1.874,1.874,0,1,1,1.874-1.874h0A1.874,1.874,0,0,1,34.788,88.384Zm0-2.5a.625.625,0,1,0,.625.625A.624.624,0,0,0,34.788,85.886Z" transform="translate(-30.947 -82.732)" fill="#4c8613"/>
      <path id="Path_21593" data-name="Path 21593" d="M29.914,70.348a1.319,1.319,0,0,0-.874-1.218V59.044A2.3,2.3,0,0,0,26.6,56.827H25.293V55.235a2.392,2.392,0,0,0-2.248-2.467H2.436A2.529,2.529,0,0,0,0,55.235v10.8a2.4,2.4,0,0,0,2.436,2.342H3.747v1.468A2.217,2.217,0,0,0,5.9,72.127h4.966a4.59,4.59,0,0,0,4.528,3.466,4.683,4.683,0,0,0,2.873-.968,11.43,11.43,0,0,0,2.155.219c.437,1.124,2.717,1.53,4.684,1.53s4.809-.406,4.809-1.9V70.348ZM25.293,58.076H26.6a1.073,1.073,0,0,1,1.187.968v9.649a14.557,14.557,0,0,0-2.186-.25V65.071a.78.78,0,0,0,.031-.375.874.874,0,0,0-.343-.718ZM24.98,69.63h.062a8.15,8.15,0,0,1,3.06.625h0a.656.656,0,0,1,.437.156,7.293,7.293,0,0,1-3.5.625,6.635,6.635,0,0,1-3.466-.718A6.542,6.542,0,0,1,24.98,69.63Zm-.625-2.966a6.565,6.565,0,0,1-3.622.781,11.962,11.962,0,0,1-2.5-.281,4.029,4.029,0,0,0-1-.593v-.5A10.086,10.086,0,0,0,20.7,66.6a11.771,11.771,0,0,0,3.653-.531Zm-.125-1.9a8.423,8.423,0,0,1-3.5.593,7.755,7.755,0,0,1-3.466-.656,6.986,6.986,0,0,1,3.466-.656,7.2,7.2,0,0,1,3.435.593A.251.251,0,0,0,24.231,64.759Zm-21.8,2.373a1.155,1.155,0,0,1-1.187-1.093v-10.8a1.28,1.28,0,0,1,1.187-1.218H23.044a1.146,1.146,0,0,1,1,1.218V63.26a11.712,11.712,0,0,0-3.372-.468,9.785,9.785,0,0,0-3.653.625,5,5,0,0,0,.812-2.779,5.121,5.121,0,1,0-5.121,5.121h.031a5.184,5.184,0,0,0,3.185-1.124V64.7a.468.468,0,0,0,.031.219h0v1.311h-.562a4.622,4.622,0,0,0-2.842.937Zm10.3-2.623a3.872,3.872,0,1,1,3.841-3.9c0,.01,0,.021,0,.031A3.872,3.872,0,0,1,12.74,64.509Zm-2.061,6.339H6a.968.968,0,0,1-1-.936q0-.032,0-.063V68.381h6.432A4.34,4.34,0,0,0,10.679,70.848Zm7.057,2.623a3.591,3.591,0,0,1-2.342.906,3.5,3.5,0,0,1-3.4-2.935,3.09,3.09,0,0,1-.062-.531,3.466,3.466,0,0,1,3.466-3.466h0a3.935,3.935,0,0,1,1.03.156,2.935,2.935,0,0,1,1.218.687,3.5,3.5,0,0,1,1.155,1.9h0a4.683,4.683,0,0,1,.062.687,3.466,3.466,0,0,1-1.124,2.592Zm1.561.062a6.271,6.271,0,0,0,.437-.781H20.3V73.6Zm.812-2.81h.156v.812h-.25a4.242,4.242,0,0,0,.062-.625ZM20.64,69.5h-.749a3.467,3.467,0,0,0-.375-.843l1.218.062a10.617,10.617,0,0,0,3.622-.625v.343A6.329,6.329,0,0,0,20.64,69.5Zm.906,2.217a10.4,10.4,0,0,0,3.5.531,11.515,11.515,0,0,0,3.591-.562v.593h0c-.219.25-1.436.749-3.591.749s-3.185-.406-3.5-.656Zm3.56,3.4c-2.061,0-3.31-.468-3.529-.718v-.625a10.336,10.336,0,0,0,3.466.531,11.242,11.242,0,0,0,3.622-.562v.656A6.53,6.53,0,0,1,25.105,75.126Z" transform="translate(0 -52.768)" fill="#4c8613"/>
      <path id="Path_21594" data-name="Path 21594" d="M214.831,316.29a2.717,2.717,0,1,1,2.717-2.717,2.717,2.717,0,0,1-2.717,2.717Zm0-4.184a1.468,1.468,0,1,0,1.468,1.468h0A1.468,1.468,0,0,0,214.831,312.106Z" transform="translate(-199.436 -295.432)" fill="#4c8613"/>
    </g>
  </g>
</svg>
