<svg xmlns="http://www.w3.org/2000/svg" width="45.967" height="28.912" viewBox="0 0 45.967 28.912">
  <g id="Groups_1" data-name="Groups 1" transform="translate(-475.888 -328.935)">
    <path id="tree_leave_1" data-name="tree leave 1" d="M611.743,329.185s1.557,2.35,2.121,8.556c0,0,.257,6.757,2.668,9.931,0,0,3.82,5.155,9.127,3.636l-6.972-15.525Zm13.669,21.9.247.219.221-.25s-1.3-8.18-3.928-11.493a38.012,38.012,0,0,0-4.8-6.032l-2.991-3.095-2.2-1.5.3,1.155m14.447,19.035s.079-7.737-8.324-14.5l-5.682-5.035s5.464-.039,12.586,6.7C625.291,336.292,630.874,342.331,626.712,349.125Z" transform="translate(-135.855)" fill="#61b80c" fill-rule="evenodd"/>
    <path id="tree_leave_2" data-name="tree leave 2" d="M684.732,376.591s-2.724.72-7.262,4.951c0,0-4.673,4.842-8.582,5.612,0,0-6.279,1.313-9.242-3.3l15.514-6.932Zm-24.757,7.262h-.33v-.33s6.394-5.215,10.563-5.942a38.322,38.322,0,0,1,7.592-1.32l4.291-.33,2.641.33-.99.66m-23.436,4.621s5.072-5.79,15.844-5.281h7.592s-4.063-3.618-13.864-3.3C669.878,372.96,661.695,373.771,660.306,381.542Zm.484,3.277s-4.441,3.283-8.131.914l-.578-.475s5.419.759,7.332-1.471l1.548.573.221.082Z" transform="translate(-162.877 -29.48)" fill="#61b80c" fill-rule="evenodd"/>
  </g>
</svg>
