<svg xmlns="http://www.w3.org/2000/svg" width="19.675" height="21.382" viewBox="0 0 19.675 21.382">
  <g id="COCO_Duotone_Shopping_Cart" data-name="COCO/Duotone/Shopping Cart" transform="translate(0.132 0.738)">
    <path id="Vector" d="M1.763,6.225A6.655,6.655,0,0,1,6.725,1.271l.494-.111a12.752,12.752,0,0,1,5.612,0l.494.111a6.655,6.655,0,0,1,4.962,4.954,12.359,12.359,0,0,1,0,5.857,6.655,6.655,0,0,1-4.962,4.954l-.494.111a12.752,12.752,0,0,1-5.612,0l-.494-.111a6.655,6.655,0,0,1-4.962-4.954A12.359,12.359,0,0,1,1.763,6.225Z" transform="translate(0.148 0.089)" fill="rgba(255,255,255,0.15)" stroke="#fff" stroke-width="1.5"/>
    <path id="Vector-2" data-name="Vector" d="M7.019,17.148a1.9,1.9,0,0,1,.163,1.024,1.876,1.876,0,0,1-.4.953,1.794,1.794,0,0,1-.835.581,1.746,1.746,0,0,1-1.008.027,1.787,1.787,0,0,1-.863-.537,1.87,1.87,0,0,1-.446-.931,1.9,1.9,0,0,1,.111-1.031,1.839,1.839,0,0,1,.634-.807m11.562.209a1.854,1.854,0,0,1,.554.871,1.9,1.9,0,0,1,.009,1.041,1.857,1.857,0,0,1-.538.881,1.773,1.773,0,0,1-.915.442,1.748,1.748,0,0,1-1-.137,1.81,1.81,0,0,1-.771-.673,1.895,1.895,0,0,1-.022-2M2.394,12.94H17.953M2.992,3.7l-.149-.811A3.554,3.554,0,0,0,0,0" fill="rgba(255,255,255,0.15)" stroke="#fff" stroke-width="1.5"/>
    <path id="Vector-3" data-name="Vector" d="M0,0,.045.008a3.914,3.914,0,0,1,3.27,3.86" transform="translate(12.156 4.421)" fill="rgba(255,255,255,0.15)" stroke="#fff" stroke-linecap="round" stroke-width="1.5"/>
  </g>
</svg>
