<svg id="spices" xmlns="http://www.w3.org/2000/svg" width="34.4" height="34.4" viewBox="0 0 34.4 34.4">
  <path id="Path_21542" data-name="Path 21542" d="M71.768,11.733a3.867,3.867,0,0,1-.882,2.6,5.544,5.544,0,0,0-1.337,3.49v.155H66.219v-.155a5.209,5.209,0,0,0-1.271-3.412A3.829,3.829,0,0,1,64,11.878a3.885,3.885,0,0,1,3.95-3.884,3.939,3.939,0,0,1,3.817,3.74Zm0,0" transform="translate(-59.561 -7.439)" fill="#cf9e76"/>
  <path id="Path_21543" data-name="Path 21543" d="M64.877,152.555v1.11a.557.557,0,0,1-.555.555H56.555a.557.557,0,0,1-.555-.555v-1.11a.557.557,0,0,1,.555-.555h7.768A.557.557,0,0,1,64.877,152.555Zm0,0" transform="translate(-52.116 -141.458)" fill="#cf9e76"/>
  <path id="Path_21544" data-name="Path 21544" d="M23.535,402.95a4.869,4.869,0,0,1-4.866,4.866h-5.8A4.868,4.868,0,0,1,8,402.95a4.632,4.632,0,0,1,.133-1.11h.005a5.061,5.061,0,0,0,4.888,3.756h5.482A5.061,5.061,0,0,0,23.4,401.84H23.4A4.632,4.632,0,0,1,23.535,402.95Zm0,0" transform="translate(-7.445 -373.971)" fill="#4fc1e9"/>
  <path id="Path_21545" data-name="Path 21545" d="M62.652,184l1.193,4.172a2.482,2.482,0,0,1-1.193.266c-1.67,0-1.67-1.11-3.334-1.11s-1.665,1.11-3.329,1.11a2.458,2.458,0,0,1-1.187-.266L55.994,184Zm0,0" transform="translate(-51 -171.239)" fill="#4fc1e9"/>
  <path id="Path_21546" data-name="Path 21546" d="M25.135,243.552a1.656,1.656,0,0,1,.055.228h-.005a5.061,5.061,0,0,1-4.888,3.756H14.815a5.061,5.061,0,0,1-4.888-3.756H9.922a1.656,1.656,0,0,1,.055-.228l3.057-10.708a2.458,2.458,0,0,0,1.187.266c1.665,0,1.665-1.11,3.329-1.11s1.665,1.11,3.334,1.11a2.482,2.482,0,0,0,1.193-.266Zm0,0" transform="translate(-9.233 -215.911)" fill="#e6e9ed"/>
  <path id="Path_21547" data-name="Path 21547" d="M72,296h6.658v8.877H72Zm0,0" transform="translate(-67.006 -275.471)" fill="#fcd770"/>
  <path id="Path_21548" data-name="Path 21548" d="M341.548,9.11v6.658H336V9.11A1.113,1.113,0,0,1,337.11,8h3.329A1.113,1.113,0,0,1,341.548,9.11Zm0,0" transform="translate(-312.697 -7.445)" fill="#ccd1d9"/>
  <path id="Path_21549" data-name="Path 21549" d="M312.877,120a1.113,1.113,0,0,1,1.11,1.11v1.11a1.113,1.113,0,0,1-1.11,1.11H305.11a1.113,1.113,0,0,1-1.11-1.11v-1.11a1.113,1.113,0,0,1,1.11-1.11Zm0,0" transform="translate(-282.916 -111.678)" fill="#e6e9ed"/>
  <path id="Path_21550" data-name="Path 21550" d="M279.535,416.672a3.952,3.952,0,0,1-3.951,3.951h-7.634a3.957,3.957,0,0,1-3.834-4.91l.028-.111a3.838,3.838,0,0,0,3.69,2.8H275.7a3.838,3.838,0,0,0,3.69-2.8l.028.111a3.952,3.952,0,0,1,.117.96Zm0,0" transform="translate(-245.691 -386.778)" fill="#4fc1e9"/>
  <path id="Path_21551" data-name="Path 21551" d="M321.033,168l1.015,4.05a2.168,2.168,0,0,1-1.293.389c-1.526,0-1.526-1.11-3.057-1.11s-1.526,1.11-3.052,1.11a2.137,2.137,0,0,1-1.287-.389l1.015-4.05Zm0,0" transform="translate(-291.627 -156.349)" fill="#4fc1e9"/>
  <path id="Path_21552" data-name="Path 21552" d="M278.046,216.721l3.279,13.122a3.838,3.838,0,0,1-3.69,2.8h-7.867a3.838,3.838,0,0,1-3.69-2.8l3.279-13.122a2.137,2.137,0,0,0,1.287.388c1.526,0,1.526-1.11,3.052-1.11s1.531,1.11,3.057,1.11A2.168,2.168,0,0,0,278.046,216.721Zm0,0" transform="translate(-247.624 -201.019)" fill="#fcd770"/>
  <path id="Path_21553" data-name="Path 21553" d="M272.51,28.8l-4.152-16.609a1.661,1.661,0,0,0,1.513-1.649V9.433a1.667,1.667,0,0,0-1.665-1.665h-.555v-6.1A1.667,1.667,0,0,0,265.987,0h-3.329a1.667,1.667,0,0,0-1.664,1.665v6.1h-.555a1.667,1.667,0,0,0-1.665,1.665v1.11a1.66,1.66,0,0,0,1.512,1.649L256.135,28.8a4.506,4.506,0,0,0,4.372,5.6h7.631a4.506,4.506,0,0,0,4.372-5.6Zm-5.138-13.265a1.748,1.748,0,0,1-1.2-.449,2.928,2.928,0,0,0-3.705,0,1.743,1.743,0,0,1-1.2.449,1.647,1.647,0,0,1-.645-.116l.8-3.213h5.792l.8,3.212a1.653,1.653,0,0,1-.649.117Zm-6.439,1.083L259.4,30.913a3.281,3.281,0,0,1-2.123-2.115L260.353,16.5a2.74,2.74,0,0,0,.581.115Zm1.125-.078a3.175,3.175,0,0,0,1.062-.557,2.3,2.3,0,0,1,.644-.362l0,15.449H260.5Zm2.819,14.53,0-15.449a2.317,2.317,0,0,1,.646.362,3.164,3.164,0,0,0,1.067.558l1.556,14.528Zm4.366-.158-1.531-14.294a2.772,2.772,0,0,0,.581-.115L271.367,28.8a3.283,3.283,0,0,1-2.124,2.115ZM262.1,1.665a.556.556,0,0,1,.555-.555h3.329a.556.556,0,0,1,.555.555v6.1H262.1ZM260.439,11.1a.556.556,0,0,1-.555-.555V9.433a.556.556,0,0,1,.555-.555h7.768a.556.556,0,0,1,.555.555v1.11a.556.556,0,0,1-.555.555Zm7.7,22.193h-7.631a3.4,3.4,0,0,1-3.259-2.443,4.389,4.389,0,0,0,3.139,1.334h7.87a4.389,4.389,0,0,0,3.139-1.334,3.4,3.4,0,0,1-3.259,2.443Zm0,0" transform="translate(-238.246 -0.001)"/>
  <path id="Path_21554" data-name="Path 21554" d="M12.382,13.3a1.108,1.108,0,0,0,.934-1.092V11.1a1.111,1.111,0,0,0-1.11-1.11H10.561a5.059,5.059,0,0,1,1.192-2.736,4.427,4.427,0,0,0,1.005-2.975A4.49,4.49,0,0,0,8.4,0,4.435,4.435,0,0,0,4.967,7.34,4.642,4.642,0,0,1,6.085,9.988H4.438a1.111,1.111,0,0,0-1.11,1.11v1.11A1.108,1.108,0,0,0,4.263,13.3L.208,27.489A5.422,5.422,0,0,0,5.421,34.4h5.8a5.422,5.422,0,0,0,5.213-6.911Zm-.214,3.291a2.294,2.294,0,0,1-.519.056,2.1,2.1,0,0,1-1.358-.462,3.186,3.186,0,0,0-1.973-.648,3.184,3.184,0,0,0-1.972.648,2.1,2.1,0,0,1-1.356.462,2.287,2.287,0,0,1-.514-.055l.935-3.274h5.821ZM5.8,6.613a3.327,3.327,0,0,1,2.574-5.5,3.367,3.367,0,0,1,3.27,3.205,3.319,3.319,0,0,1-.752,2.23A6.129,6.129,0,0,0,9.451,9.988H7.2A5.756,5.756,0,0,0,5.8,6.613ZM4.438,12.207V11.1h7.768v1.11Zm-.267,5.452a3.388,3.388,0,0,0,.819.1,3.183,3.183,0,0,0,1.972-.648,2.1,2.1,0,0,1,1.357-.462,2.1,2.1,0,0,1,1.358.462,3.191,3.191,0,0,0,1.974.648,3.374,3.374,0,0,0,.824-.1l2.9,10.136c0,.016.005.032.01.048a4.513,4.513,0,0,1-4.318,3.229H5.583a4.512,4.512,0,0,1-4.318-3.23c0-.016.006-.032.01-.048Zm7.053,15.631h-5.8a4.317,4.317,0,0,1-4.142-3.126,5.62,5.62,0,0,0,4.3,2.017h5.479a5.619,5.619,0,0,0,4.3-2.017,4.317,4.317,0,0,1-4.142,3.126Zm0,0" transform="translate(0 -0.001)"/>
  <path id="Path_21555" data-name="Path 21555" d="M92.439,34.219a2.219,2.219,0,1,0-4.439,0h1.11a1.11,1.11,0,1,1,2.219,0Zm0,0" transform="translate(-81.897 -29.781)"/>
  <path id="Path_21556" data-name="Path 21556" d="M71.768,288H64v9.987h7.768Zm-1.11,8.877H65.11V289.11h5.548Zm0,0" transform="translate(-59.561 -268.026)"/>
</svg>
