<svg xmlns="http://www.w3.org/2000/svg" width="18.51" height="18.908" viewBox="0 0 18.51 18.908">
  <g id="COCO_Duotone_Calendar" data-name="COCO/Duotone/Calendar" transform="translate(-2.745 -2.847)">
    <path id="Vector" d="M.333,6.353A7.179,7.179,0,0,1,5.62.943a12.331,12.331,0,0,1,5.76,0,7.179,7.179,0,0,1,5.287,5.41,13.2,13.2,0,0,1,0,5.9,7.179,7.179,0,0,1-5.287,5.41,12.331,12.331,0,0,1-5.76,0,7.179,7.179,0,0,1-5.287-5.41A13.2,13.2,0,0,1,.333,6.353Z" transform="translate(3.5 3)" fill="rgba(76,134,19,0.15)" stroke="#4c8613" stroke-width="1.5"/>
    <path id="Vector-2" data-name="Vector" d="M.64,5.279h0M4.593.665,5.1,1.742M12.413.665l-.283,1.077" transform="translate(3.5 3)" fill="rgba(54,56,83,0.15)" stroke="#4c8613" stroke-width="1.5"/>
    <path id="Path" d="M4.68,8.89a.765.765,0,0,1-.39-.11L.37,6.44A.751.751,0,0,1,0,5.8V.75a.75.75,0,0,1,1.5,0V5.37L5.06,7.49a.753.753,0,0,1,.26,1.03A.742.742,0,0,1,4.68,8.89Z" transform="translate(10.345 7.856)" fill="#4c8613"/>
  </g>
</svg>
