<svg xmlns="http://www.w3.org/2000/svg" width="13.942" height="14.743" viewBox="0 0 13.942 14.743">
  <g id="COCO_Line_Trash-2" data-name="COCO/Line/Trash-2" transform="translate(0 0.4)">
    <path id="Vector" d="M2,4.033H12.844V8.016a13,13,0,0,1-.51,3.605,4.358,4.358,0,0,1-3.455,3.1l-.122.021a8.013,8.013,0,0,1-2.671,0l-.122-.021a4.358,4.358,0,0,1-3.455-3.1A13,13,0,0,1,2,8.016Z" transform="translate(-0.451 -0.909)" fill="none" stroke="red" stroke-width="0.8"/>
    <path id="Vector-2" data-name="Vector" d="M0,3.123H13.942m-10.456,0a2.844,2.844,0,0,1,.265-1.2A3.125,3.125,0,0,1,4.506.915,3.537,3.537,0,0,1,5.637.238,3.86,3.86,0,0,1,8.3.238,3.537,3.537,0,0,1,9.435.915a3.125,3.125,0,0,1,.756,1.013,2.844,2.844,0,0,1,.265,1.2" fill="none" stroke="red" stroke-width="0.8"/>
    <path id="Vector-3" data-name="Vector" d="M0,0V3.1M3.1,0V3.1" transform="translate(5.422 6.971)" fill="none" stroke="red" stroke-linecap="round" stroke-width="0.8"/>
  </g>
</svg>
