<svg id="vegetable" xmlns="http://www.w3.org/2000/svg" width="37.594" height="37.594" viewBox="0 0 37.594 37.594">
  <g id="Group_17463" data-name="Group 17463" transform="translate(0.606 0.606)">
    <g id="Group_17462" data-name="Group 17462" transform="translate(16.978 13.946)">
      <path id="Path_21484" data-name="Path 21484" d="M58.068,31.64v1.273a7.764,7.764,0,0,1-2.456,5.651l-2.359-.358A8.119,8.119,0,0,0,54.429,34V31.767A8.122,8.122,0,0,0,53.6,28.2a7.72,7.72,0,0,0-1.595-2.189l.006-.006A1.942,1.942,0,0,1,53.726,25a1.968,1.968,0,0,1,1.164.382,7.784,7.784,0,0,1,3.177,6.258Z" transform="translate(-38.664 -25)" fill="#fcd770"/>
      <path id="Path_21485" data-name="Path 21485" d="M48.148,25.388a5.87,5.87,0,0,1,.709.625A7.72,7.72,0,0,1,50.452,28.2a8.122,8.122,0,0,1,.825,3.565V34A8.119,8.119,0,0,1,50.1,38.207l-5.688-.873v-.006A12.728,12.728,0,0,1,44,34.114V31.652a12.909,12.909,0,0,1,.249-2.51,4.393,4.393,0,0,0,.964.1c1.34,0,2.425-.546,2.425-1.213,0-.431-.449-.806-1.122-1.019l.182-1.989A1.66,1.66,0,0,1,47,25,1.907,1.907,0,0,1,48.148,25.388Z" transform="translate(-35.511 -25)" fill="#fcd770"/>
      <path id="Path_21486" data-name="Path 21486" d="M35.318,25.261a1.922,1.922,0,0,1,.758.782v.006a7.933,7.933,0,0,0-2.438,5.718V34a7.922,7.922,0,0,0,.437,2.589l-3.4-.521A7.746,7.746,0,0,1,30,32.913V31.64a7.734,7.734,0,0,1,.121-1.352c.024-.127.049-.255.079-.382a7.818,7.818,0,0,1,2.977-4.523A1.968,1.968,0,0,1,34.342,25,1.928,1.928,0,0,1,35.318,25.261Z" transform="translate(-30 -25)" fill="#fcd770"/>
      <path id="Path_21487" data-name="Path 21487" d="M40.578,25.012l.182,2c-.673.212-1.122.588-1.122,1.019,0,.5.6.922,1.461,1.11a12.909,12.909,0,0,0-.249,2.51v2.462a12.728,12.728,0,0,0,.412,3.214l-3.808-.582-1.019-.158A7.922,7.922,0,0,1,36,34V31.767a7.933,7.933,0,0,1,2.438-5.718v-.006a7.2,7.2,0,0,1,.77-.655A2,2,0,0,1,40.384,25a1.837,1.837,0,0,1,.188.012Z" transform="translate(-32.362 -25)" fill="#fcd770"/>
    </g>
    <path id="Path_21488" data-name="Path 21488" d="M46.851,24.489c0,.667-1.085,1.213-2.425,1.213a4.393,4.393,0,0,1-.964-.1C42.6,25.411,42,24.986,42,24.489c0-.431.449-.806,1.122-1.019l-.182-2L42.612,17.9a1.371,1.371,0,0,1-.006-.158A1.736,1.736,0,0,1,44.347,16H44.5a1.739,1.739,0,0,1,1.74,1.74,1.371,1.371,0,0,1-.006.158l-.327,3.584-.182,1.989C46.4,23.683,46.851,24.059,46.851,24.489Z" transform="translate(-17.746 -7.511)" fill="#cf9e76"/>
    <path id="Path_21489" data-name="Path 21489" d="M16.073,4.5a2.986,2.986,0,0,1,.661-.079,3.02,3.02,0,0,1,2.425,1.213l-.012.061a2.745,2.745,0,0,0-.594-.061,3.025,3.025,0,0,0-2.789,1.843c-.079-.006-.158-.024-.243-.024a3.03,3.03,0,0,0-2.989,2.589,4.242,4.242,0,0,0-.746,7.864,3,3,0,0,0-.509,1.674A3.03,3.03,0,0,0,12.7,22.143a3.03,3.03,0,0,0,2.826,4.129c-.158-.012-.309-.018-.461-.018h-.146a6.02,6.02,0,0,0-3.22.928l-1.631-4.566a3.015,3.015,0,0,1-2.826-4.111,3.03,3.03,0,0,1-1.419-2.559,3,3,0,0,1,.509-1.674,4.242,4.242,0,0,1,.746-7.864,3.03,3.03,0,0,1,2.989-2.589c.085,0,.164.018.243.024a3.026,3.026,0,0,1,5.766.661Z" transform="translate(-2.787 -2)" fill="#8cc152"/>
    <path id="Path_21490" data-name="Path 21490" d="M27.892,15.579a3.013,3.013,0,0,1,.873,2.122,3.078,3.078,0,0,1-.115.825l-.024.042a1.928,1.928,0,0,0-.976-.261,1.968,1.968,0,0,0-1.164.382,7.818,7.818,0,0,0-2.977,4.523c-.03.127-.055.255-.079.382a7.733,7.733,0,0,0-.121,1.352v1.273a7.746,7.746,0,0,0,.673,3.153l-4.457-.685c-.158-.024-.309-.042-.461-.055a3.03,3.03,0,0,1-2.826-4.129,3.03,3.03,0,0,1-1.419-2.559,3,3,0,0,1,.509-1.674,4.242,4.242,0,0,1,.746-7.864,3.03,3.03,0,0,1,2.989-2.589c.085,0,.164.018.243.024A3.025,3.025,0,0,1,22.1,8a2.744,2.744,0,0,1,.594.061A3.017,3.017,0,0,1,25.073,10.5a2.986,2.986,0,0,1,.661-.079,3.027,3.027,0,0,1,2.159,5.154Z" transform="translate(-6.33 -4.362)" fill="#b4dd7f"/>
    <path id="Path_21491" data-name="Path 21491" d="M4.911,50H8.185a6.124,6.124,0,0,0,0,2.425H3.213A1.222,1.222,0,0,1,2,51.213,1.216,1.216,0,0,1,3.213,50Z" transform="translate(-2 -20.895)" fill="#b4dd7f"/>
    <path id="Path_21492" data-name="Path 21492" d="M6.328,46.024l3.608.806a6.024,6.024,0,0,0-.57,1.595H6.091A1.1,1.1,0,0,1,5,47.334v-.243A1.1,1.1,0,0,1,6.091,46a1.044,1.044,0,0,1,.236.024Z" transform="translate(-3.181 -19.32)" fill="#b4dd7f"/>
    <path id="Path_21493" data-name="Path 21493" d="M9.936,55.595,6.328,56.4a1.045,1.045,0,0,1-.236.024A1.1,1.1,0,0,1,5,55.334v-.243A1.1,1.1,0,0,1,6.091,54H9.366A6.024,6.024,0,0,0,9.936,55.595Z" transform="translate(-3.181 -22.469)" fill="#b4dd7f"/>
    <path id="Path_21494" data-name="Path 21494" d="M41.639,46.22a2.829,2.829,0,0,0-1.716-.952l-.061-.012L37.5,44.9l-5.688-.873v-.006l-3.808-.582-1.019-.158-3.4-.521-4.457-.685c-.158-.024-.309-.042-.461-.055S18.361,42,18.209,42h-.146a6.08,6.08,0,0,0-5.942,4.851,6.124,6.124,0,0,0,0,2.425,6.024,6.024,0,0,0,.57,1.595,6.059,6.059,0,0,0,5.372,3.256h.146a5.96,5.96,0,0,0,.922-.073l8.877-1.364,11.915-1.831a2.832,2.832,0,0,0,1.716-4.639Z" transform="translate(-5.936 -17.746)" fill="#ff826e"/>
  </g>
  <g id="Group_17464" data-name="Group 17464" transform="translate(0 0)">
    <path id="Path_21495" data-name="Path 21495" d="M38.594,22.192a8.425,8.425,0,0,0-3.424-6.744,2.58,2.58,0,0,0-1.526-.5,2.553,2.553,0,0,0-1.8.739c-.088-.073-.168-.154-.259-.224a2.522,2.522,0,0,0-1.155-.473l.267-2.94c.006-.07.009-.141.009-.212a2.349,2.349,0,0,0-2.347-2.347h-.158a2.349,2.349,0,0,0-2.347,2.347c0,.071,0,.142.01.213L26.139,15a2.6,2.6,0,0,0-1.07.455c-.109.081-.2.175-.309.26-.054-.056-.111-.108-.17-.158a3.543,3.543,0,0,0-.627-2.735A3.636,3.636,0,0,0,20.8,7.07a3.623,3.623,0,0,0-2.413-2.281,3.588,3.588,0,0,0-3.045-1.357,3.634,3.634,0,0,0-6.578-.611A3.655,3.655,0,0,0,5.371,5.552,4.846,4.846,0,0,0,4.334,14.1a3.621,3.621,0,0,0,1.015,4.243,3.511,3.511,0,0,0-.1.845,3.644,3.644,0,0,0,3.2,3.612l1.341,3.756a6.7,6.7,0,0,0-1.723,1.868l-3.177-.706a1.643,1.643,0,0,0-.37-.041,1.7,1.7,0,0,0-1.7,1.7v.24a1.68,1.68,0,0,0,.079.486H2.819a1.819,1.819,0,0,0,0,3.638H2.9a1.68,1.68,0,0,0-.079.486v.24a1.7,1.7,0,0,0,1.7,1.7,1.659,1.659,0,0,0,.369-.041l3.178-.706a6.665,6.665,0,0,0,5.669,3.172h.142a6.7,6.7,0,0,0,1.014-.078l20.793-3.2a3.426,3.426,0,0,0,.945-6.487,8.386,8.386,0,0,0,1.966-5.365Zm-7.741-5.767a7.454,7.454,0,0,1,2.891,5.9v2.227A7.486,7.486,0,0,1,32.85,28.1l-4.862-.748a12.091,12.091,0,0,1-.307-2.681V22.2a12.071,12.071,0,0,1,.154-1.827c.149.013.3.026.452.026,1.729,0,3.032-.782,3.032-1.819a1.649,1.649,0,0,0-1.082-1.414l.089-.981a1.271,1.271,0,0,1,.528.235ZM28.207,10.7h.158A1.135,1.135,0,0,1,29.5,11.836a.971.971,0,0,1,0,.1l-.551,6.056.463.149c.531.17.7.394.7.441,0,.151-.645.606-1.819.606s-1.819-.455-1.819-.606c0-.048.167-.272.7-.442l.463-.149-.551-6.055c0-.035,0-.069,0-.1A1.135,1.135,0,0,1,28.207,10.7Zm-1.959,5.508.087.961a1.649,1.649,0,0,0-1.082,1.414c0,.668.545,1.227,1.392,1.542a13.36,13.36,0,0,0-.179,2.078v2.462a13.325,13.325,0,0,0,.235,2.483l-3.574-.55a7.3,7.3,0,0,1-.3-2.051V22.321a7.387,7.387,0,0,1,2.965-5.893A1.356,1.356,0,0,1,26.249,16.209ZM19.7,26.071a7.052,7.052,0,0,1-.505-2.6V22.191a7.211,7.211,0,0,1,2.932-5.769,1.367,1.367,0,0,1,.805-.263,1.34,1.34,0,0,1,.95.394,8.59,8.59,0,0,0-2.262,5.769v2.227a8.492,8.492,0,0,0,.21,1.85Zm.057-18.219.11.624.618-.138a2.421,2.421,0,0,1,2.257,4.06l-.417.425.417.425a2.411,2.411,0,0,1,.7,1.7c0,.018,0,.036,0,.055a2.513,2.513,0,0,0-2.029.446,8.453,8.453,0,0,0-2.562,3.08q-.345-1.073-.72-2.051a8.6,8.6,0,0,1,2.663-4.7l-.38-.472-.379-.474a9.6,9.6,0,0,0-2.646,3.823,37.679,37.679,0,0,0-2.529-4.89l-1.021.656a35.688,35.688,0,0,1,2.017,3.8,9.99,9.99,0,0,0-3.993-.482l.121,1.207c.912-.092,3.5-.047,4.7,1.184.425,1.045.844,2.19,1.214,3.417a10.264,10.264,0,0,0-4.157-.96V19.8a8.151,8.151,0,0,1,4.326,1.289,8.188,8.188,0,0,0-.081,1.106v1.275a8.274,8.274,0,0,0,.36,2.4l-3.448-.531c-.182-.028-.366-.047-.55-.06a2.422,2.422,0,0,1-2.259-3.306l.177-.464-.42-.266a2.412,2.412,0,0,1-.731-3.385l.378-.568-.608-.309a3.634,3.634,0,0,1,.643-6.737l.377-.108.056-.387A2.431,2.431,0,0,1,14.34,7.67a.48.48,0,0,1,.066.008c.042.006.085.012.129.015l.435.035.171-.4a2.421,2.421,0,0,1,4.613.526ZM9.31,21.616H8.883a2.407,2.407,0,0,1-2.259-3.288l.178-.464-.42-.266a2.412,2.412,0,0,1-.732-3.385l.378-.568-.608-.309A3.634,3.634,0,0,1,6.062,6.6l.377-.108L6.495,6.1A2.432,2.432,0,0,1,8.883,4.032a.506.506,0,0,1,.068.008c.041.005.082.011.125.015l.437.036.172-.4a2.42,2.42,0,0,1,4.612.527l.11.624.618-.138a2.223,2.223,0,0,1,1.326.087,3.63,3.63,0,0,0-2.13,1.671A3.655,3.655,0,0,0,10.828,9.19a4.846,4.846,0,0,0-1.037,8.55,3.622,3.622,0,0,0,1.015,4.244,3.506,3.506,0,0,0-.1.845,3.649,3.649,0,0,0,1.184,2.691,6.6,6.6,0,0,0-1.039.4Zm-5.278,8v-.24a.494.494,0,0,1,.592-.475l2.886.642c-.07.183-.133.369-.187.56h-2.8A.487.487,0,0,1,4.032,29.619ZM2.213,31.924a.607.607,0,0,1,.606-.606H7.094c-.018.2-.03.4-.03.606s.013.406.031.606H2.819A.607.607,0,0,1,2.213,31.924Zm2.41,3.02a.5.5,0,0,1-.591-.475v-.24a.487.487,0,0,1,.486-.486h2.8c.054.19.118.377.187.56Zm32.759-3.02a2.209,2.209,0,0,1-1.883,2.2l-20.792,3.2a5.47,5.47,0,0,1-.831.064h-.142a5.457,5.457,0,1,1,0-10.914h.142a5.533,5.533,0,0,1,.83.063l20.792,3.2A2.21,2.21,0,0,1,37.382,31.924Zm0-8.458a7.178,7.178,0,0,1-2.068,5.007l-1.2-.186a8.7,8.7,0,0,0,.848-3.739V22.321a8.7,8.7,0,0,0-2.231-5.793,1.34,1.34,0,0,1,.92-.37,1.358,1.358,0,0,1,.805.264,7.208,7.208,0,0,1,2.932,5.768Z" transform="translate(-1 -1)" fill="#4b7422"/>
    <path id="Path_21496" data-name="Path 21496" d="M21,47h1.213v6.064H21Z" transform="translate(-8.873 -19.107)" fill="#4b7422"/>
    <path id="Path_21497" data-name="Path 21497" d="M29,47h1.213v6.064H29Z" transform="translate(-12.022 -19.107)" fill="#4b7422"/>
    <path id="Path_21498" data-name="Path 21498" d="M37,47h1.213v6.064H37Z" transform="translate(-15.171 -19.107)" fill="#4b7422"/>
    <path id="Path_21499" data-name="Path 21499" d="M45,49h1.213v3.638H45Z" transform="translate(-18.32 -19.895)" fill="#4b7422"/>
    <path id="Path_21500" data-name="Path 21500" d="M53,50h1.213v2.425H53Z" transform="translate(-21.469 -20.288)" fill="#4b7422"/>
  </g>
</svg>
