<svg xmlns="http://www.w3.org/2000/svg" xmlns:xlink="http://www.w3.org/1999/xlink" width="546" height="356.164" viewBox="0 0 546 356.164">
  <defs>
    <filter id="Background" x="0" y="0" width="546" height="356.164" filterUnits="userSpaceOnUse">
      <feOffset dy="23" input="SourceAlpha"/>
      <feGaussianBlur stdDeviation="34" result="blur"/>
      <feFlood flood-opacity="0.11"/>
      <feComposite operator="in" in2="blur"/>
      <feComposite in="SourceGraphic"/>
    </filter>
    <filter id="Background-2" x="0" y="0" width="546" height="356.164" filterUnits="userSpaceOnUse">
      <feOffset dy="23" input="SourceAlpha"/>
      <feGaussianBlur stdDeviation="34" result="blur-2"/>
      <feFlood flood-opacity="0.11"/>
      <feComposite operator="in" in2="blur-2"/>
      <feComposite in="SourceGraphic"/>
    </filter>
    <clipPath id="clip-path">
      <g transform="matrix(1, 0, 0, 1, 0, 0)" filter="url(#Background)">
        <rect id="Background-3" data-name="Background" width="342" height="152.164" rx="10"/>
      </g>
    </clipPath>
    <linearGradient id="linear-gradient" x1="0.803" y1="0.094" x2="0.162" y2="0.857" gradientUnits="objectBoundingBox">
      <stop offset="0" stop-color="#fff" stop-opacity="0"/>
      <stop offset="1"/>
    </linearGradient>
    <linearGradient id="linear-gradient-5" x1="0.5" x2="0.5" y2="1" gradientUnits="objectBoundingBox">
      <stop offset="0" stop-color="#fff"/>
      <stop offset="1" stop-color="#d1cfcf"/>
    </linearGradient>
  </defs>
  <g id="Group_889" data-name="Group 889" transform="translate(102 79)">
    <g transform="matrix(1, 0, 0, 1, -102, -79)" filter="url(#Background-2)">
      <rect id="Background-4" data-name="Background" width="342" height="152.164" rx="10" transform="translate(102 79)"/>
    </g>
    <g id="Mask_Group_10" data-name="Mask Group 10" transform="translate(0)" clip-path="url(#clip-path)">
      <ellipse id="Ellipse_80" data-name="Ellipse 80" cx="80.652" cy="80.652" rx="80.652" ry="80.652" transform="translate(-9.678 53.088)" opacity="0.35" fill="url(#linear-gradient)"/>
      <ellipse id="Ellipse_81" data-name="Ellipse 81" cx="80.652" cy="80.652" rx="80.652" ry="80.652" transform="translate(-69.36 -48.533)" opacity="0.35" fill="url(#linear-gradient)"/>
      <ellipse id="Ellipse_82" data-name="Ellipse 82" cx="80.652" cy="80.652" rx="80.652" ry="80.652" transform="translate(204.855 -75.955)" opacity="0.35" fill="url(#linear-gradient)"/>
      <ellipse id="Ellipse_83" data-name="Ellipse 83" cx="80.652" cy="80.652" rx="80.652" ry="80.652" transform="translate(204.855 53.088)" opacity="0.35" fill="url(#linear-gradient)"/>
      <g id="COCO_Line_Trash-2" data-name="COCO/Line/Trash-2" transform="translate(292.516 14.798)">
        <path id="Vector" d="M2,4.033H12.844V8.016a13,13,0,0,1-.51,3.605,4.358,4.358,0,0,1-3.455,3.1l-.122.021a8.013,8.013,0,0,1-2.671,0l-.122-.021a4.358,4.358,0,0,1-3.455-3.1A13,13,0,0,1,2,8.016Z" transform="translate(-0.451 -0.909)" fill="none" stroke="#fff" stroke-width="0.8"/>
        <path id="Vector-2" data-name="Vector" d="M0,3.123H13.942m-10.456,0a2.844,2.844,0,0,1,.265-1.2A3.125,3.125,0,0,1,4.506.915,3.537,3.537,0,0,1,5.637.238,3.86,3.86,0,0,1,8.3.238,3.537,3.537,0,0,1,9.435.915a3.125,3.125,0,0,1,.756,1.013,2.844,2.844,0,0,1,.265,1.2" fill="none" stroke="#fff" stroke-width="0.8"/>
        <path id="Vector-3" data-name="Vector" d="M0,0V3.1M3.1,0V3.1" transform="translate(5.422 6.971)" fill="none" stroke="#fff" stroke-linecap="round" stroke-width="0.8"/>
      </g>
    </g>
    <g id="card_info" data-name="card info" transform="translate(24.311 23.799)">
      <g id="logo" transform="translate(0 0)">
        <path id="_2" data-name="2" d="M22.755,14.5l.535-3.317.491.236a7.591,7.591,0,0,0,3.583.778c1.094,0,2.268-.454,2.277-1.446.007-.649-.491-1.112-1.973-1.838-1.444-.709-3.357-1.9-3.336-4.025C24.355,2.01,27,0,30.766,0a9.333,9.333,0,0,1,3.412.622l-.516,3.211-.342-.171a6.672,6.672,0,0,0-2.849-.568c-1.49,0-2.18.659-2.18,1.275-.008.694.806,1.152,2.137,1.837,2.2,1.057,3.21,2.34,3.2,4.025C33.6,13.307,31,15.294,27,15.294A11.466,11.466,0,0,1,22.755,14.5Zm20.734.576s-.349-1.7-.463-2.22l-4.876-.007c-.148.4-.8,2.227-.8,2.227h-4L39,1.5A1.882,1.882,0,0,1,41,.272H43.94l3.082,14.807ZM39.246,9.821h3.16c-.152-.741-.881-4.278-.881-4.278l-.257-1.278c-.193.556-.527,1.453-.505,1.414C40.763,5.68,39.561,8.967,39.246,9.821Zm-22.68,5.252L18.945.257h3.807L20.371,15.073ZM4,2.193A15.439,15.439,0,0,0,0,.567L.049.259H6.188A1.6,1.6,0,0,1,7.913,1.51L9.248,8.319l.4,2.052L13.372.268h4.033L11.411,15.056l-4.028,0Z" transform="translate(0)" fill="#fff"/>
      </g>
    </g>
    <rect id="Rectangle_324" data-name="Rectangle 324" width="15.253" height="14.787" rx="4" transform="translate(311 13.912)" fill="url(#linear-gradient-5)"/>
    <text id="VALID_DATE" data-name="VALID DATE" transform="translate(291.977 113.712)" fill="#fff" font-size="5" font-family="Roboto-Bold, Roboto" font-weight="700" letter-spacing="-0.02em"><tspan x="0" y="0">VALID DATE</tspan></text>
    <g id="tick_1_" data-name="tick (1)" transform="translate(314 17.912)">
      <g id="Group_17551" data-name="Group 17551" transform="translate(0)">
        <path id="Path_21578" data-name="Path 21578" d="M9.242,68.135a.469.469,0,0,0-.663,0L2.96,73.754.8,71.594a.469.469,0,0,0-.663.663l2.491,2.491a.469.469,0,0,0,.663,0l5.95-5.95A.469.469,0,0,0,9.242,68.135Z" transform="translate(0 -67.997)"/>
      </g>
    </g>
  </g>
</svg>
