<svg xmlns="http://www.w3.org/2000/svg" width="216" height="117.114" viewBox="0 0 216 117.114">
  <g id="empty_Notifications" data-name="empty Notifications" transform="translate(-9331 -516.5)">
    <path id="Background" d="M202,63a7,7,0,1,1,7,7A7,7,0,0,1,202,63Zm-62,7a7.037,7.037,0,0,1-1.5-.161A7.043,7.043,0,0,1,137,70H46a7,7,0,1,1,0-14H7A7,7,0,1,1,7,42H47a7,7,0,0,0,0-14H22a7,7,0,0,1,0-14H62A7,7,0,1,1,62,0h57a7,7,0,0,1,0,14h64a7,7,0,1,1,0,14h22a7,7,0,1,1,0,14H186a7,7,0,1,0,0,14h6a7,7,0,0,1,0,14Z" transform="translate(9331 540)" fill="#f2ffe5"/>
    <g id="Icon_ionic-ios-notifications-outline" data-name="Icon ionic-ios-notifications-outline" transform="translate(9386.226 514.07)">
      <path id="Path_160" data-name="Path 160" d="M37.694,28.336a3.694,3.694,0,0,0-3.622,2.909,7.147,7.147,0,0,1-1.426,3.109c-.371.428-1.455,1.683-4.592,1.683s-4.221-1.283-4.592-1.683a7.148,7.148,0,0,1-1.426-3.109,3.694,3.694,0,0,0-3.622-2.909h0a3.719,3.719,0,0,0-3.622,4.535c1.426,6.36,5.989,10.581,13.262,10.581S39.89,39.26,41.316,32.871a3.733,3.733,0,0,0-3.622-4.535Z" transform="translate(24.226 74.592)" fill="#fff" stroke="#4c8613" stroke-linecap="round" stroke-miterlimit="10" stroke-width="3"/>
      <path id="Path_161" data-name="Path 161" d="M96.8,88.439c-4.392-5.79-13.034-9.184-13.034-35.11,0-26.61-11.751-37.306-22.7-39.873-1.027-.257-1.768-.6-1.768-1.683v-.827A7,7,0,0,0,52.451,3.93H52.28a7,7,0,0,0-6.845,7.016v.827c0,1.055-.742,1.426-1.768,1.683-10.981,2.6-22.7,13.262-22.7,39.873,0,25.926-8.642,29.291-13.034,35.11a5.661,5.661,0,0,0,4.535,9.07H92.352A5.666,5.666,0,0,0,96.8,88.439Z" transform="translate(0 0)" fill="#fff" stroke="#4c8613" stroke-linecap="round" stroke-miterlimit="10" stroke-width="3"/>
      <g id="Group_27" data-name="Group 27" transform="translate(-9479.475 -317.729)">
        <path id="Oval" d="M13.088,8.153A1.073,1.073,0,0,1,12.015,7.08a4.935,4.935,0,1,0-9.869,0A1.073,1.073,0,0,1,0,7.08a7.08,7.08,0,1,1,14.161,0A1.073,1.073,0,0,1,13.088,8.153Z" transform="translate(9526.41 374.403) rotate(180)" fill="#4c8613"/>
        <path id="Oval-2" data-name="Oval" d="M13.088,8.153A1.073,1.073,0,0,1,12.015,7.08a4.935,4.935,0,1,0-9.869,0A1.073,1.073,0,0,1,0,7.08a7.08,7.08,0,1,1,14.161,0A1.073,1.073,0,0,1,13.088,8.153Z" transform="translate(9551.299 374.403) rotate(180)" fill="#4c8613"/>
        <path id="Line" d="M12.267,1.9H-.177A1.073,1.073,0,0,1-1.25.823,1.073,1.073,0,0,1-.177-.25H12.267a1.073,1.073,0,1,1,0,2.146Z" transform="translate(9525.515 382.806)" fill="#4c8613"/>
      </g>
    </g>
  </g>
</svg>
