<svg xmlns="http://www.w3.org/2000/svg" width="167" height="102.178" viewBox="0 0 167 102.178">
  <g id="document" transform="translate(-8965.5 -433.5)">
    <g id="NoDocuments" transform="translate(8918.5 383.5)">
      <path id="Background" d="M46,70a7,7,0,1,1,0-14H7A7,7,0,1,1,7,42H47a7,7,0,0,0,0-14H22a7,7,0,0,1,0-14H62A7,7,0,1,1,62,0h98a7,7,0,0,1,0,14H120a7,7,0,1,1,0,14h22a7,7,0,0,1,0,14H131.826C126.951,42,123,45.134,123,49s6,7,6,7a7,7,0,0,1,0,14ZM153,35a7,7,0,1,1,7,7A7,7,0,0,1,153,35Z" transform="translate(47 65)" fill="#f2ffe5"/>
      <path id="Shape" d="M63,79.979H4a4,4,0,0,1-4-4V2A2,2,0,0,1,2,0h.021L6.909.051l3.953.04L13.7.122,66.036.651,67,69.122v6.857A4,4,0,0,1,63,79.979Z" transform="translate(88.049 71.402) rotate(-7)" fill="#fff" stroke="#4c8613" stroke-linecap="round" stroke-miterlimit="10" stroke-width="2.5"/>
      <path id="Rectangle" d="M59.136.609,60,62.66v6.215A3.6,3.6,0,0,1,56.418,72.5H3.582A3.6,3.6,0,0,1,0,68.875V2A2,2,0,0,1,2,0H8.536" transform="translate(92.37 74.872) rotate(-7)" fill="#baf2d0" opacity="0.19"/>
      <g id="Rectangle-2" data-name="Rectangle" transform="translate(106.672 50)" fill="#fff" stroke-miterlimit="10">
        <path d="M 63 82.75 L 4 82.75 C 2.483647108078003 82.75 1.25 81.51634979248047 1.25 80 L 1.25 4 C 1.25 2.483647108078003 2.483647108078003 1.25 4 1.25 L 49.55676651000977 1.25 C 50.29098892211914 1.25 50.98136520385742 1.535835266113281 51.50071716308594 2.054858922958374 L 64.94393920898438 15.48977661132812 C 65.46373748779297 16.00924682617188 65.75 16.70004653930664 65.75 17.43492889404297 L 65.75 80 C 65.75 81.51634979248047 64.51634979248047 82.75 63 82.75 Z" stroke="none"/>
        <path d="M 4 2.5 C 3.172901153564453 2.5 2.5 3.172897338867188 2.5 4 L 2.5 80 C 2.5 80.82710266113281 3.172901153564453 81.5 4 81.5 L 63 81.5 C 63.82709884643555 81.5 64.5 80.82710266113281 64.5 80 L 64.5 17.43491363525391 C 64.5 17.03408050537109 64.34384918212891 16.65727996826172 64.06033325195312 16.37393188476562 L 50.61709976196289 2.939018249511719 C 50.33381652832031 2.655914306640625 49.95725250244141 2.5 49.55676651000977 2.5 L 4 2.5 M 4 0 L 49.55676651000977 0 C 50.61720275878906 0 51.63423156738281 0.42108154296875 52.38431549072266 1.170700073242188 L 65.82755279541016 14.60561370849609 C 66.57823181152344 15.3558349609375 67 16.37363433837891 67 17.43491363525391 L 67 80 C 67 82.20913696289062 65.20913696289062 84 63 84 L 4 84 C 1.790863037109375 84 0 82.20913696289062 0 80 L 0 4 C 0 1.790863037109375 1.790863037109375 0 4 0 Z" stroke="none" fill="#4c8613"/>
      </g>
      <path id="Shape-2" data-name="Shape" d="M0,0V11.6a3,3,0,0,0,3,3h7.934" transform="translate(156.672 52.403)" fill="none" stroke="#4c8613" stroke-linecap="round" stroke-linejoin="round" stroke-miterlimit="10" stroke-width="2.5"/>
      <path id="lines" d="M0,51.5H0Zm0-13H0Zm0-13H0Zm0-13H0ZM0,.5H0Z" transform="translate(118.672 66.5)" fill="none" stroke="#4c8613" stroke-linecap="round" stroke-linejoin="round" stroke-miterlimit="10" stroke-width="2.5"/>
    </g>
  </g>
</svg>
