<svg xmlns="http://www.w3.org/2000/svg" width="167" height="106" viewBox="0 0 167 106">
  <g id="empty_wishlist" data-name="empty wishlist" transform="translate(-9451 -323.5)">
    <path id="Background" d="M46,70a7,7,0,1,1,0-14H7A7,7,0,1,1,7,42H47a7,7,0,0,0,0-14H22a7,7,0,0,1,0-14H62A7,7,0,1,1,62,0h98a7,7,0,0,1,0,14H120a7,7,0,1,1,0,14h22a7,7,0,0,1,0,14H131.826C126.951,42,123,45.134,123,49s6,7,6,7a7,7,0,0,1,0,14ZM153,35a7,7,0,1,1,7,7A7,7,0,0,1,153,35Z" transform="translate(9451 342)" fill="#f2ffe5"/>
    <path id="Polygon_1" data-name="Polygon 1" d="M52.689,7.528a3,3,0,0,1,5.621,0L69.236,36.794a3,3,0,0,0,2.677,1.948l31.119,1.391a3,3,0,0,1,1.74,5.34L80.391,64.979a3,3,0,0,0-1.018,3.139l8.3,30.157a3,3,0,0,1-4.551,3.3L57.158,84.346a3,3,0,0,0-3.317,0L27.877,101.57a3,3,0,0,1-4.551-3.3l8.3-30.157a3,3,0,0,0-1.018-3.139L6.228,45.472a3,3,0,0,1,1.74-5.34l31.119-1.391a3,3,0,0,0,2.677-1.948Z" transform="translate(9478.5 323.5)" fill="#fff"/>
    <path id="Polygon_1_-_Outline" data-name="Polygon 1 - Outline" d="M55.5,4.328a4.215,4.215,0,0,1,3.982,2.764L70.407,36.356a1.747,1.747,0,0,0,1.561,1.136l31.119,1.391a4.25,4.25,0,0,1,2.465,7.564L81.172,65.955a1.748,1.748,0,0,0-.594,1.831l8.3,30.157a4.2,4.2,0,0,1-.7,3.686,4.314,4.314,0,0,1-3.406,1.7,4.233,4.233,0,0,1-2.343-.719L56.467,85.388a1.75,1.75,0,0,0-1.935,0L28.568,102.612a4.233,4.233,0,0,1-2.343.719,4.314,4.314,0,0,1-3.406-1.7,4.2,4.2,0,0,1-.7-3.686l8.3-30.157a1.748,1.748,0,0,0-.594-1.831L5.448,46.448a4.25,4.25,0,0,1,2.465-7.564l31.119-1.391a1.747,1.747,0,0,0,1.561-1.136L51.518,7.091A4.215,4.215,0,0,1,55.5,4.328Zm29.275,96.5a1.825,1.825,0,0,0,1.417-.718,1.668,1.668,0,0,0,.277-1.508l-8.3-30.157A4.246,4.246,0,0,1,79.61,64L103.991,44.5a1.75,1.75,0,0,0-1.015-3.115L71.857,39.99a4.243,4.243,0,0,1-3.792-2.759L57.139,7.966a1.75,1.75,0,0,0-3.279,0L42.935,37.231a4.243,4.243,0,0,1-3.792,2.759L8.025,41.381A1.75,1.75,0,0,0,7.009,44.5L31.39,64a4.246,4.246,0,0,1,1.442,4.447l-8.3,30.157a1.668,1.668,0,0,0,.276,1.508,1.8,1.8,0,0,0,1.417.718,1.719,1.719,0,0,0,.961-.3L53.151,83.3a4.25,4.25,0,0,1,4.7,0l25.965,17.224A1.719,1.719,0,0,0,84.775,100.831Z" transform="translate(9478.5 323.5)" fill="#4c8613"/>
    <g id="Group_25" data-name="Group 25" transform="translate(-0.5 4.5)">
      <path id="Oval" d="M14,8.25A1.25,1.25,0,0,1,12.75,7,5.75,5.75,0,0,0,1.25,7,1.25,1.25,0,0,1,0,8.25,1.25,1.25,0,0,1-1.25,7a8.25,8.25,0,0,1,16.5,0A1.25,1.25,0,0,1,14,8.25Z" transform="translate(9527.5 374.5) rotate(180)" fill="#4c8613"/>
      <path id="Oval-2" data-name="Oval" d="M14,8.25A1.25,1.25,0,0,1,12.75,7,5.75,5.75,0,0,0,1.25,7,1.25,1.25,0,0,1,0,8.25,1.25,1.25,0,0,1-1.25,7a8.25,8.25,0,0,1,16.5,0A1.25,1.25,0,0,1,14,8.25Z" transform="translate(9556.5 374.5) rotate(180)" fill="#4c8613"/>
      <path id="Line" d="M14.5,2.25H0A1.25,1.25,0,0,1-1.25,1,1.25,1.25,0,0,1,0-.25H14.5a1.25,1.25,0,0,1,0,2.5Z" transform="translate(9527.5 385.5)" fill="#4c8613"/>
    </g>
  </g>
</svg>
