<svg xmlns="http://www.w3.org/2000/svg" width="216" height="124.5" viewBox="0 0 216 124.5">
  <g id="empty_cart" data-name="empty cart" transform="translate(-9940.5 2257)">
    <path id="Background" d="M202,63a7,7,0,1,1,7,7A7,7,0,0,1,202,63Zm-62,7a7.037,7.037,0,0,1-1.5-.161A7.043,7.043,0,0,1,137,70H46a7,7,0,1,1,0-14H7A7,7,0,1,1,7,42H47a7,7,0,0,0,0-14H22a7,7,0,0,1,0-14H62A7,7,0,1,1,62,0h57a7,7,0,0,1,0,14h64a7,7,0,1,1,0,14h22a7,7,0,1,1,0,14H186a7,7,0,1,0,0,14h6a7,7,0,0,1,0,14Z" transform="translate(9940.5 -2228.75)" fill="#f2ffe5"/>
    <path id="Rectangle" d="M2,0H69L63,9l8,6H0L9,9Z" transform="translate(10017.5 -2226.75)" fill="#fff"/>
    <path id="line" d="M143.128.5h0ZM116,.5h0ZM13,.5h0ZM.128.5h0Z" transform="translate(9980.5 -2147.75)" fill="none" stroke="#4c8613" stroke-linecap="round" stroke-linejoin="round" stroke-miterlimit="10" stroke-width="2.5"/>
    <path id="bag" d="M71.045,79H4.461A3.983,3.983,0,0,1,.506,75V3A3.022,3.022,0,0,1,3.543,0H73.022A1.991,1.991,0,0,1,75,2V75A3.982,3.982,0,0,1,71.045,79Z" transform="translate(10016 -2212.75)" fill="#fff" stroke="#4c8613" stroke-linecap="round" stroke-miterlimit="10" stroke-width="2.5"/>
    <g id="Group_4902" data-name="Group 4902">
      <path id="Rectangle-2" data-name="Rectangle" d="M70,0V12a1.906,1.906,0,0,1-1.795,2H1.795A1.906,1.906,0,0,1,0,12V0" transform="translate(10088.5 -2212.75) rotate(180)" fill="none" stroke="#4c8613" stroke-miterlimit="10" stroke-width="2.5"/>
      <path id="Path_3" data-name="Path 3" d="M1.061,0,8.168,7.015A1,1,0,0,1,7.95,8.6L0,13" transform="translate(10018.5 -2225.753)" fill="none" stroke="#4c8613" stroke-linecap="round" stroke-miterlimit="10" stroke-width="2.5"/>
      <path id="Path_3-2" data-name="Path 3" d="M-1.527,0l-6.8,6.937a1,1,0,0,0,.235,1.578L0,12.931" transform="translate(10089.136 -2225.681)" fill="none" stroke="#4c8613" stroke-linecap="round" stroke-miterlimit="10" stroke-width="2.5"/>
    </g>
    <g id="Line-2" data-name="Line">
      <path id="Path_5" data-name="Path 5" d="M0,0-11.1,12.453" transform="translate(10079.6 -2251.447)" fill="none" stroke="#4c8613" stroke-linecap="round" stroke-linejoin="round" stroke-miterlimit="10" stroke-width="2.5"/>
      <path id="Path_5-2" data-name="Path 5" d="M.5,0V16.756" transform="translate(10053 -2255.75)" fill="none" stroke="#4c8613" stroke-linecap="round" stroke-linejoin="round" stroke-miterlimit="10" stroke-width="2.5"/>
      <path id="Path_5-3" data-name="Path 5" d="M0,0,11.1,12.453" transform="translate(10027.5 -2251.447)" fill="none" stroke="#4c8613" stroke-linecap="round" stroke-linejoin="round" stroke-miterlimit="10" stroke-width="2.5"/>
    </g>
    <g id="face" transform="translate(9926.253 -2284.028)">
      <circle id="Oval" cx="5.5" cy="5.5" r="5.5" transform="translate(122 107)" fill="none" stroke="#4c8613" stroke-miterlimit="10" stroke-width="2.5"/>
      <path id="Line-3" data-name="Line" d="M0,10.722,7,5.229,0,0" transform="translate(112 90.278)" fill="none" stroke="#4c8613" stroke-linecap="round" stroke-linejoin="round" stroke-miterlimit="10" stroke-width="2.5"/>
      <path id="Line-4" data-name="Line" d="M0,10.722-7,5.229,0,0" transform="translate(143 90.278)" fill="none" stroke="#4c8613" stroke-linecap="round" stroke-linejoin="round" stroke-miterlimit="10" stroke-width="2.5"/>
    </g>
  </g>
</svg>
