<svg xmlns="http://www.w3.org/2000/svg" width="167" height="86.889" viewBox="0 0 167 86.889">
  <g id="NoSearchResult" transform="translate(0 0.25)">
    <path id="Background" d="M46,70a7,7,0,1,1,0-14H7A7,7,0,1,1,7,42H47a7,7,0,0,0,0-14H22a7,7,0,0,1,0-14H62A7,7,0,1,1,62,0h98a7,7,0,0,1,0,14H120a7,7,0,1,1,0,14h22a7,7,0,0,1,0,14H131.826C126.951,42,123,45.134,123,49s6,7,6,7a7,7,0,0,1,0,14ZM153,35a7,7,0,1,1,7,7A7,7,0,0,1,153,35Z" fill="#f2ffe5"/>
    <g id="Search" transform="translate(40 1)">
      <circle id="Oval" cx="33.5" cy="33.5" r="33.5" fill="#d4ffaa" stroke="#4c8613" stroke-miterlimit="10" stroke-width="2.5"/>
      <path id="Oval-2" data-name="Oval" d="M21.132,52.494A35.271,35.271,0,0,0,26.5,53,26.535,26.535,0,1,0,6.684,44.1" transform="translate(7 7)" fill="#fff" stroke="#4c8613" stroke-linecap="round" stroke-miterlimit="10" stroke-width="2.5"/>
      <path id="Oval-3" data-name="Oval" d="M0,0A26.473,26.473,0,0,0,7.2,4.172" transform="translate(16.797 54.075)" fill="none" stroke="#4c8613" stroke-linecap="round" stroke-miterlimit="10" stroke-width="2.5"/>
      <path id="Oval-4" data-name="Oval" d="M19,0A18.979,18.979,0,0,0,0,19" transform="translate(15 15)" fill="none" stroke="#4c8613" stroke-linecap="round" stroke-miterlimit="10" stroke-width="2.5"/>
      <path id="Path_4" data-name="Path 4" d="M0,0,6,6" transform="translate(61 60)" fill="none" stroke="#4c8613" stroke-miterlimit="10" stroke-width="2.5"/>
      <g id="Rectangle" transform="translate(63 62)" fill="#d4ffaa" stroke-miterlimit="10">
        <path d="M 17.54265022277832 22.38924026489258 C 16.24806976318359 22.38924026489258 15.03098964691162 21.88511085510254 14.11557960510254 20.9697093963623 L 3.030289888381958 9.884420394897461 C 1.140609979629517 7.994729995727539 1.140609979629517 4.919980049133301 3.030289888381958 3.030289888381958 C 3.94569993019104 2.114890098571777 5.162779808044434 1.610759973526001 6.457359790802002 1.610759973526001 C 7.751930236816406 1.610759973526001 8.969010353088379 2.114890098571777 9.884420394897461 3.030289888381958 L 20.9697093963623 14.11557960510254 C 22.85939025878906 16.00527000427246 22.85939025878906 19.08002090454102 20.9697093963623 20.9697093963623 C 20.05430030822754 21.88511085510254 18.83721923828125 22.38924026489258 17.54265022277832 22.38924026489258 Z" stroke="none"/>
        <path d="M 6.45734977722168 2.860759735107422 C 5.496660232543945 2.860759735107422 4.593479156494141 3.234870910644531 3.914180755615234 3.914180755615234 C 2.511859893798828 5.316490173339844 2.511859893798828 7.598220825195312 3.914180755615234 9.000530242919922 L 14.99946975708008 20.08581924438477 C 15.67877006530762 20.76512908935547 16.58196067810059 21.13924026489258 17.54264068603516 21.13924026489258 C 18.50332069396973 21.13924026489258 19.40650939941406 20.76512908935547 20.08581924438477 20.08581924438477 C 21.48814010620117 18.68350982666016 21.48814010620117 16.40177917480469 20.08581924438477 14.99946975708008 L 9.000530242919922 3.914180755615234 C 8.321229934692383 3.234870910644531 7.418039321899414 2.860759735107422 6.45734977722168 2.860759735107422 M 6.457355499267578 0.3607578277587891 C 8.017609596252441 0.3607578277587891 9.577864646911621 0.9559745788574219 10.76830005645752 2.14640998840332 L 21.85359001159668 13.23169994354248 C 24.23446083068848 15.61256980895996 24.23446083068848 19.47272109985352 21.85359001159668 21.85359001159668 C 19.47272109985352 24.23445892333984 15.61257076263428 24.23446083068848 13.23169994354248 21.85359001159668 L 2.14640998840332 10.76830005645752 C -0.2344608306884766 8.387430191040039 -0.2344608306884766 4.527280807495117 2.14640998840332 2.14640998840332 C 3.336845397949219 0.9559745788574219 4.897100448608398 0.3607578277587891 6.457355499267578 0.3607578277587891 Z" stroke="none" fill="#4c8613"/>
      </g>
      <path id="Line" d="M0,0,11,11" transform="translate(71 67)" fill="none" stroke="#fff" stroke-linecap="round" stroke-miterlimit="10" stroke-width="2.5"/>
    </g>
    <path id="Line_8" data-name="Line 8" d="M3,8.778H3ZM22.279,1h0ZM.324,1h0Z" transform="translate(116 26)" fill="none" stroke="#4c8613" stroke-linecap="round" stroke-linejoin="round" stroke-miterlimit="10" stroke-width="2.5"/>
    <path id="Line_8-2" data-name="Line 8" d="M24,9.778h0ZM10.324,1h0ZM.279,1h0Z" transform="translate(5 47)" fill="none" stroke="#4c8613" stroke-linecap="round" stroke-linejoin="round" stroke-miterlimit="10" stroke-width="2.5"/>
  </g>
</svg>
